<svg width="27" height="26" viewBox="0 0 27 26" fill="none" xmlns="http://www.w3.org/2000/svg">
<path d="M13.5 0C10.9288 0 8.41542 0.762437 6.27759 2.1909C4.13975 3.61935 2.4735 5.64968 1.48956 8.02512C0.505625 10.4006 0.248182 13.0144 0.74979 15.5362C1.2514 18.0579 2.48953 20.3743 4.30761 22.1924C6.12569 24.0105 8.44207 25.2486 10.9638 25.7502C13.4856 26.2518 16.0994 25.9944 18.4749 25.0104C20.8503 24.0265 22.8806 22.3603 24.3091 20.2224C25.7376 18.0846 26.5 15.5712 26.5 13C26.4964 9.5533 25.1255 6.24882 22.6884 3.81163C20.2512 1.37445 16.9467 0.00363977 13.5 0ZM13.5 24C11.3244 24 9.19767 23.3549 7.38873 22.1462C5.57978 20.9375 4.16989 19.2195 3.33732 17.2095C2.50476 15.1995 2.28692 12.9878 2.71136 10.854C3.1358 8.72022 4.18345 6.7602 5.72182 5.22183C7.2602 3.68345 9.22021 2.6358 11.354 2.21136C13.4878 1.78692 15.6995 2.00476 17.7095 2.83733C19.7195 3.66989 21.4375 5.07979 22.6462 6.88873C23.8549 8.69767 24.5 10.8244 24.5 13C24.4967 15.9164 23.3367 18.7123 21.2745 20.7745C19.2123 22.8367 16.4164 23.9967 13.5 24ZM19.2075 12.2925C19.3005 12.3854 19.3742 12.4957 19.4246 12.6171C19.4749 12.7385 19.5008 12.8686 19.5008 13C19.5008 13.1314 19.4749 13.2615 19.4246 13.3829C19.3742 13.5043 19.3005 13.6146 19.2075 13.7075L15.2075 17.7075C15.0199 17.8951 14.7654 18.0006 14.5 18.0006C14.2346 18.0006 13.9801 17.8951 13.7925 17.7075C13.6049 17.5199 13.4994 17.2654 13.4994 17C13.4994 16.7346 13.6049 16.4801 13.7925 16.2925L16.0862 14H8.5C8.23478 14 7.98043 13.8946 7.79289 13.7071C7.60536 13.5196 7.5 13.2652 7.5 13C7.5 12.7348 7.60536 12.4804 7.79289 12.2929C7.98043 12.1054 8.23478 12 8.5 12H16.0862L13.7925 9.7075C13.6049 9.51986 13.4994 9.26536 13.4994 9C13.4994 8.73464 13.6049 8.48014 13.7925 8.2925C13.9801 8.10486 14.2346 7.99944 14.5 7.99944C14.7654 7.99944 15.0199 8.10486 15.2075 8.2925L19.2075 12.2925Z" fill="#94CE54"/>
</svg>
