<svg width="27" height="26" viewBox="0 0 27 26" fill="none" xmlns="http://www.w3.org/2000/svg">
<path d="M13.5 0C16.0712 0 18.5846 0.762437 20.7224 2.1909C22.8603 3.61935 24.5265 5.64968 25.5104 8.02512C26.4944 10.4006 26.7518 13.0144 26.2502 15.5362C25.7486 18.0579 24.5105 20.3743 22.6924 22.1924C20.8743 24.0105 18.5579 25.2486 16.0362 25.7502C13.5144 26.2518 10.9006 25.9944 8.52512 25.0104C6.14968 24.0265 4.11936 22.3603 2.6909 20.2224C1.26244 18.0846 0.500002 15.5712 0.500002 13C0.503641 9.5533 1.87445 6.24882 4.31163 3.81163C6.74882 1.37445 10.0533 0.00363977 13.5 0ZM13.5 24C15.6756 24 17.8023 23.3549 19.6113 22.1462C21.4202 20.9375 22.8301 19.2195 23.6627 17.2095C24.4952 15.1995 24.7131 12.9878 24.2886 10.854C23.8642 8.72022 22.8166 6.7602 21.2782 5.22183C19.7398 3.68345 17.7798 2.6358 15.646 2.21136C13.5122 1.78692 11.3005 2.00476 9.29048 2.83733C7.2805 3.66989 5.56253 5.07979 4.35384 6.88873C3.14514 8.69767 2.5 10.8244 2.5 13C2.50331 15.9164 3.6633 18.7123 5.72548 20.7745C7.78766 22.8367 10.5836 23.9967 13.5 24ZM7.7925 12.2925C7.69953 12.3854 7.62576 12.4957 7.57544 12.6171C7.52512 12.7385 7.49922 12.8686 7.49922 13C7.49922 13.1314 7.52512 13.2615 7.57544 13.3829C7.62576 13.5043 7.69953 13.6146 7.7925 13.7075L11.7925 17.7075C11.9801 17.8951 12.2346 18.0006 12.5 18.0006C12.7654 18.0006 13.0199 17.8951 13.2075 17.7075C13.3951 17.5199 13.5006 17.2654 13.5006 17C13.5006 16.7346 13.3951 16.4801 13.2075 16.2925L10.9138 14H18.5C18.7652 14 19.0196 13.8946 19.2071 13.7071C19.3946 13.5196 19.5 13.2652 19.5 13C19.5 12.7348 19.3946 12.4804 19.2071 12.2929C19.0196 12.1054 18.7652 12 18.5 12H10.9138L13.2075 9.7075C13.3951 9.51986 13.5006 9.26536 13.5006 9C13.5006 8.73464 13.3951 8.48014 13.2075 8.2925C13.0199 8.10486 12.7654 7.99944 12.5 7.99944C12.2346 7.99944 11.9801 8.10486 11.7925 8.2925L7.7925 12.2925Z" fill="#94CE54"/>
</svg>
