<svg width="535" height="61" viewBox="0 0 535 61" fill="none" xmlns="http://www.w3.org/2000/svg">
<path d="M11.4351 6.98946C11.2844 7.97478 10.9969 8.93496 10.5806 9.84301C10.402 10.2453 10.2362 10.5721 10.1214 10.811C10.0644 10.9422 9.99612 11.0683 9.91736 11.1881C9.64536 10.9691 9.40881 10.7105 9.21586 10.4213C8.74009 9.72173 8.51559 8.88532 8.57814 8.0454C8.68536 6.96384 9.0479 5.922 9.63676 5.00325C9.7643 4.78955 9.89185 4.58842 10.0066 4.425C10.109 4.27251 10.2197 4.12563 10.3383 3.98502L10.6444 3.60791C10.8591 3.8921 11.0309 4.20541 11.1545 4.53814C11.2871 4.88239 11.3771 5.24116 11.4224 5.60666C11.4912 6.06481 11.4955 6.53015 11.4351 6.98946Z" fill="#082148"/>
<path d="M7.12411 14.5061C7.24779 15.5982 7.22205 16.7017 7.04758 17.7871C7.04758 18.0259 6.98381 18.2396 6.94554 18.4407C6.90728 18.6419 6.88177 18.8053 6.85626 18.9561L6.75422 19.4087C6.39541 19.2567 6.0638 19.0487 5.77213 18.7927C5.46419 18.528 5.19391 18.2236 4.9686 17.8876C4.69157 17.4419 4.49319 16.9531 4.3819 16.442C4.18219 15.2677 4.25634 14.064 4.59872 12.9222C4.71201 12.4948 4.85259 12.075 5.01962 11.6651C5.14716 11.3508 5.23645 11.1748 5.23645 11.1748L5.47878 11.3759C5.68732 11.5695 5.87929 11.7798 6.05273 12.0045C6.30795 12.3228 6.51819 12.6738 6.6777 13.0479C6.89223 13.512 7.04238 14.0025 7.12411 14.5061Z" fill="#082148"/>
<path d="M4.91766 22.8915C5.36971 24.0126 5.69064 25.1808 5.87424 26.3736C5.87424 26.625 5.95077 26.8764 5.98903 27.0901C6.0273 27.3038 5.98903 27.4924 6.06556 27.6558C6.14209 27.8193 6.12933 28.1587 6.12933 28.1587C6.01048 28.1679 5.89107 28.1679 5.77221 28.1587C5.47122 28.1034 5.17645 28.0192 4.89215 27.9072C4.47689 27.7341 4.09004 27.5011 3.74425 27.2158C3.29237 26.8348 2.91613 26.3745 2.63461 25.8582C2.03935 24.6406 1.7506 23.2996 1.79281 21.9487C1.77292 21.6725 1.77292 21.3952 1.79281 21.119C1.79281 20.8676 1.79281 20.6413 1.79281 20.4528C1.79281 20.2642 1.8821 19.8745 1.8821 19.8745C2.28446 20.0392 2.65872 20.2639 2.99174 20.5408C3.34489 20.8193 3.6657 21.1355 3.94832 21.4836C4.33028 21.9108 4.65597 22.3838 4.91766 22.8915Z" fill="#082148"/>
<path d="M5.36402 31.6154C6.23589 32.6036 6.98913 33.6877 7.6088 34.8461L7.81287 35.2106C7.87665 35.3238 7.94042 35.4244 7.99144 35.5375C8.04246 35.6506 8.20827 35.9272 8.28479 36.0906L8.53988 36.5809C8.41515 36.6211 8.28713 36.6505 8.15725 36.6689C7.82239 36.7052 7.4845 36.7052 7.14964 36.6689C6.01575 36.6136 4.93725 36.1689 4.10133 35.4118C3.0334 34.3574 2.24119 33.0633 1.79277 31.6405C1.67798 31.3263 1.60145 31.0246 1.52493 30.748C1.4484 30.4715 1.39738 30.2326 1.35912 30.0315C1.28259 29.6166 1.25708 29.3652 1.25708 29.3652H1.63972C1.97442 29.4355 2.30284 29.5322 2.62181 29.6544C3.06858 29.8337 3.49589 30.0569 3.89725 30.3206C4.14242 30.4815 4.37675 30.6579 4.59875 30.8486C4.87645 31.0813 5.13255 31.3379 5.36402 31.6154Z" fill="#082148"/>
<path d="M8.62915 39.7613L9.11382 40.0379L9.58573 40.3396L10.4785 40.9932L10.8994 41.3327L11.1035 41.5087L11.3076 41.6721L12.0473 42.3257C12.5193 42.7154 12.8891 43.0926 13.1697 43.344L13.6034 43.7714C13.4903 43.8518 13.3708 43.9233 13.2463 43.9851C12.9306 44.1547 12.597 44.2896 12.2514 44.3874C11.7425 44.5344 11.2125 44.5981 10.6826 44.5759C9.9824 44.5521 9.29359 44.3942 8.65466 44.1108C7.19277 43.3905 5.93173 42.3289 4.98137 41.0184C4.76454 40.7293 4.57323 40.4401 4.40742 40.1887C4.24161 39.9373 4.08856 39.6984 3.98652 39.4973C3.7697 39.0951 3.65491 38.8562 3.65491 38.8562L4.0758 38.7808C4.44056 38.7456 4.80793 38.7456 5.17269 38.7808L5.91245 38.8562C6.18029 38.8562 6.46089 38.9568 6.75424 39.0322C7.04759 39.1076 7.3537 39.2208 7.65981 39.3465C7.99259 39.4617 8.31654 39.6003 8.62915 39.7613Z" fill="#082148"/>
<path d="M14.3177 46.499C15.1094 46.6609 15.8892 46.8751 16.6517 47.1401C17.0216 47.2658 17.3915 47.3915 17.7359 47.5298L18.2461 47.7309L18.718 47.9069C19.3429 48.1583 19.8786 48.3595 20.2485 48.5355L20.6949 48.724L20.848 48.7869C20.7653 48.909 20.6759 49.0265 20.5801 49.1389C20.3287 49.4358 20.0417 49.7017 19.7256 49.9308C19.2686 50.2639 18.7605 50.5227 18.2205 50.6976C17.8851 50.8082 17.5388 50.884 17.1874 50.9239C16.7633 50.9654 16.3361 50.9654 15.912 50.9239C15.4823 50.8758 15.0563 50.8003 14.6365 50.6976C14.2033 50.5699 13.7775 50.4189 13.3611 50.2451C12.9402 50.0565 12.5321 49.8554 12.0857 49.6417C11.6392 49.428 11.3459 49.1891 11.0015 48.9629L10.7592 48.7995L10.5296 48.6235L10.1215 48.2966C9.85362 48.0829 9.62404 47.8944 9.44548 47.7184C9.26691 47.5424 8.88428 47.1527 8.88428 47.1527C9.01152 47.0773 9.14359 47.0101 9.27967 46.9516C9.64167 46.7899 10.0172 46.6595 10.4021 46.5619C10.6623 46.496 10.9264 46.4456 11.1928 46.411C11.4966 46.3612 11.8034 46.3318 12.1112 46.323C12.8416 46.2948 13.5729 46.3454 14.2922 46.4739L14.3177 46.499Z" fill="#082148"/>
<path d="M22.0469 51.0243C22.4683 50.942 22.8941 50.8832 23.3223 50.8483C23.756 50.8483 24.1896 50.7603 24.5978 50.7478C25.0059 50.7352 25.4396 50.7478 25.8732 50.7478H27.0084C27.7226 50.7478 28.2838 50.7478 28.7685 50.7478H29.47C29.444 50.9044 29.41 51.0597 29.3679 51.2129C29.2478 51.6019 29.0853 51.9771 28.8833 52.3317C28.7455 52.5785 28.5877 52.814 28.4114 53.0357C28.317 53.1632 28.2148 53.285 28.1053 53.4002C27.988 53.5195 27.8645 53.6328 27.7354 53.7396C27.444 53.9864 27.1326 54.2093 26.8043 54.4059C26.398 54.6198 25.9706 54.7925 25.5288 54.9213C25.0594 55.0673 24.5767 55.1683 24.0876 55.223C23.5802 55.2878 23.0681 55.3088 22.5571 55.2858C22.0483 55.2783 21.5408 55.2321 21.0393 55.1476C20.5703 55.0792 20.1061 54.9826 19.649 54.8584L19.0241 54.6824L18.4629 54.4939C18.1058 54.3682 17.7869 54.255 17.5446 54.1419C17.0344 53.9156 16.7283 53.7522 16.7283 53.7522C16.8347 53.6311 16.9498 53.5177 17.0726 53.4128C17.3799 53.1241 17.7128 52.8633 18.0675 52.6334C18.5945 52.3025 19.1492 52.0166 19.7256 51.7786C20.4691 51.4445 21.2475 51.1916 22.0469 51.0243Z" fill="#082148"/>
<path d="M13.0932 8.23361C12.1721 8.60865 11.3609 9.20505 10.7336 9.96839C10.5023 10.2436 10.2893 10.5334 10.0959 10.8358L9.86633 11.1878C10.1988 11.3046 10.5469 11.3723 10.8994 11.3889C11.7148 11.4527 12.5337 11.319 13.2845 10.9992C14.0825 10.6094 14.8175 10.1053 15.4655 9.50327L15.8482 9.15129C15.963 9.03815 16.065 8.95015 16.1415 8.86215L16.3839 8.59817C16.0979 8.40891 15.7838 8.26472 15.4528 8.17077C14.688 7.91313 13.858 7.91313 13.0932 8.17077V8.23361Z" fill="#082148"/>
<path d="M9.25421 15.349C8.40885 16.0179 7.74312 16.8812 7.31553 17.8631C7.21349 18.081 7.12421 18.2822 7.04769 18.4665L6.88188 18.9568C6.7926 19.2333 6.75433 19.4093 6.75433 19.4093C7.1434 19.4259 7.53308 19.3964 7.91499 19.3213C8.30207 19.2487 8.67889 19.1305 9.03738 18.9693C9.49496 18.7861 9.92427 18.5407 10.3128 18.2402C11.0566 17.596 11.6936 16.841 12.2005 16.0026C12.4301 15.6506 12.6086 15.3364 12.7362 15.1101L12.9147 14.7455L12.6086 14.6701C12.3369 14.6082 12.0585 14.5786 11.7796 14.5822C11.3879 14.5711 10.9967 14.6177 10.6189 14.7204C10.1283 14.8444 9.66546 15.0575 9.25421 15.349Z" fill="#082148"/>
<path d="M7.41753 23.1551C6.70433 24.0894 6.26333 25.1977 6.14208 26.3607C6.14208 26.6247 6.14208 26.8636 6.07831 27.0773V27.6555C6.07831 27.9698 6.07831 28.1583 6.07831 28.1583C6.19118 28.1328 6.30201 28.0992 6.40992 28.0578C6.70198 27.9534 6.98374 27.8229 7.25172 27.668C7.62331 27.4587 7.97355 27.2146 8.29758 26.939C8.68961 26.6069 9.03682 26.2267 9.3307 25.8076C9.89062 24.9521 10.3203 24.0203 10.6061 23.042C10.6061 22.8283 10.7337 22.6272 10.7719 22.4512C10.8102 22.2752 10.8612 22.1118 10.8995 21.9861L11.0015 21.5587C10.5726 21.5435 10.1435 21.5858 9.72608 21.6844C9.31276 21.7848 8.91415 21.9369 8.53992 22.1369C8.10944 22.4105 7.7298 22.7549 7.41753 23.1551Z" fill="#082148"/>
<path d="M8.02958 31.0242C7.63997 32.2469 7.60026 33.5519 7.9148 34.7955C7.9148 34.9337 7.97857 35.0594 8.00408 35.1852L8.11887 35.5497C8.19539 35.776 8.25917 35.9645 8.32294 36.128C8.36131 36.2583 8.41258 36.3846 8.47599 36.5051L8.53976 36.6434L8.84587 36.4171C9.09562 36.2029 9.33001 35.9718 9.54737 35.7257C10.228 34.9584 10.7288 34.0529 11.0141 33.0733C11.2829 32.0136 11.3946 30.9212 11.3457 29.83C11.3457 29.6037 11.3457 29.39 11.3457 29.2014C11.3457 29.0129 11.3457 28.8369 11.3457 28.6986C11.3457 28.5603 11.3457 28.2461 11.3457 28.2461L10.9886 28.3592C10.6797 28.4725 10.381 28.6112 10.0958 28.774C9.45968 29.1427 8.92188 29.6555 8.52701 30.27C8.3352 30.5038 8.1685 30.7565 8.02958 31.0242Z" fill="#082148"/>
<path d="M11.1546 38.2532C11.1546 38.4292 11.1546 38.6052 11.1546 38.7687C11.1546 38.9321 11.1546 39.1206 11.1546 39.2841C11.2064 39.6307 11.2918 39.9717 11.4097 40.3023L11.5755 40.7925C11.5755 40.868 11.6392 40.9434 11.6775 41.0314L11.7923 41.2577C11.9326 41.5468 12.0856 41.8359 12.2387 42.0999C12.5047 42.5399 12.8031 42.9601 13.1315 43.357L13.5269 43.8096C13.6108 43.7014 13.6875 43.588 13.7565 43.4701C13.9437 43.1649 14.1057 42.8455 14.2411 42.5148C14.4283 42.0549 14.5734 41.5795 14.6748 41.0943C14.7952 40.5156 14.8424 39.9245 14.8151 39.3344C14.7297 38.1693 14.4763 37.0222 14.0626 35.9276C13.9733 35.7014 13.8968 35.4751 13.8202 35.2866C13.7437 35.098 13.6672 34.9346 13.6162 34.7963C13.5635 34.6411 13.4995 34.4899 13.4249 34.3438L13.0932 34.5826C12.8135 34.7989 12.5532 35.0387 12.3152 35.2991C12.1585 35.4739 12.0136 35.6586 11.8816 35.8522C11.7454 36.0671 11.6219 36.2896 11.5117 36.5185C11.3847 36.7855 11.2823 37.0631 11.2056 37.3481C11.1626 37.6479 11.1455 37.9507 11.1546 38.2532Z" fill="#082148"/>
<path d="M16.3839 44.1863C16.604 44.8966 16.9541 45.5613 17.417 46.1473C17.6355 46.4395 17.8787 46.7128 18.144 46.9644L18.5267 47.329L18.9093 47.6558C19.3379 47.9884 19.7896 48.2909 20.2613 48.5609L20.6949 48.7746L20.848 48.85C20.8886 48.7057 20.9185 48.5587 20.9373 48.4101C21.0051 48.0407 21.0435 47.6666 21.052 47.2913C21.0658 46.7614 21.0317 46.2313 20.95 45.7073C20.95 45.4182 20.848 45.1165 20.7714 44.8148C20.6907 44.5024 20.5884 44.1958 20.4653 43.8971C19.9893 42.7842 19.3629 41.7398 18.6032 40.7922L18.4884 40.6413L18.3864 40.4151C18.3226 40.3145 18.2461 40.2265 18.1823 40.1385C18.1185 40.0505 17.9144 39.8368 17.8252 39.7111L17.4935 39.334C17.3966 39.4454 17.3071 39.563 17.2257 39.686C17.0046 39.9927 16.8165 40.3213 16.6645 40.6665C16.5612 40.8914 16.4718 41.1223 16.3967 41.3579C16.3254 41.6226 16.2701 41.8913 16.2309 42.1624C16.1984 42.4717 16.1984 42.7834 16.2309 43.0926C16.2424 43.4615 16.2937 43.8281 16.3839 44.1863Z" fill="#082148"/>
<path d="M14.8534 2.94132C13.941 3.74645 13.2518 4.76747 12.851 5.90801C12.7744 6.13428 12.6979 6.33544 12.6469 6.524C12.5959 6.71256 12.5704 6.86342 12.5449 7.0017C12.5193 7.13998 12.4811 7.41652 12.4811 7.41652C12.6158 7.36915 12.7478 7.31459 12.8765 7.25309L13.3229 7.03941L13.8841 6.75027C14.8738 6.23823 15.8022 5.61838 16.6518 4.90236C17.4695 4.17099 18.2128 3.36261 18.8711 2.48875L19.2537 1.99851C19.3685 1.84766 19.4578 1.72197 19.5471 1.6214L19.7894 1.25684H19.343H18.8328C18.6415 1.25684 18.4247 1.25682 18.1823 1.35739C17.9182 1.3993 17.658 1.46236 17.4043 1.54594L16.9834 1.67166L16.5625 1.86021L16.1289 2.06135C15.98 2.13768 15.8352 2.22161 15.6952 2.31278L15.2616 2.60192L14.8534 2.94132Z" fill="#082148"/>
<path d="M23.182 47.8692C23.4261 48.1711 23.6949 48.4528 23.9856 48.7115C24.2949 48.9601 24.6186 49.1909 24.9549 49.4029C25.312 49.5914 25.6564 49.7674 26.0135 49.9183C26.3706 50.0691 26.7278 50.1697 27.0594 50.2702C27.6196 50.4175 28.1913 50.5184 28.7685 50.5719C29.2149 50.5719 29.47 50.5719 29.47 50.5719C29.444 50.4153 29.41 50.26 29.3679 50.1068C29.2629 49.717 29.1308 49.3348 28.9725 48.9629C28.8711 48.7139 28.7562 48.4705 28.6282 48.2338C28.5644 48.1081 28.5006 47.9824 28.4241 47.8567C28.3476 47.731 28.2838 47.5927 28.1945 47.4544C28.1052 47.3161 27.8502 46.9264 27.6588 46.675C27.456 46.4042 27.2389 46.144 27.0084 45.8956C26.1401 45.0224 25.173 44.2506 24.1259 43.5952L23.807 43.4066L23.5264 43.2306L23.0417 42.9415C22.9017 42.8541 22.7569 42.7744 22.6081 42.7026C22.6081 42.7026 22.5443 42.8535 22.455 43.1426C22.3455 43.5253 22.2687 43.9164 22.2254 44.3117C22.1687 44.8619 22.1989 45.4174 22.3147 45.9585C22.4577 46.6505 22.7539 47.3029 23.182 47.8692Z" fill="#082148"/>
<path d="M31.1408 57.4107C31.9119 56.2876 32.3815 54.9901 32.5056 53.6395C32.5642 53.143 32.5897 52.6433 32.5821 52.1436C32.5821 51.779 32.5821 51.5527 32.5821 51.5527C32.0825 51.6836 31.6023 51.878 31.1536 52.131C30.1351 52.6778 29.2613 53.4528 28.6027 54.3937C27.9493 55.4431 27.4713 56.5891 27.187 57.7879C27.187 58.0393 27.0722 58.2781 27.0212 58.4918C26.9701 58.7055 26.9319 58.8815 26.9064 59.045C26.8809 59.2084 26.8298 59.5352 26.8298 59.5352C27.3386 59.5268 27.8443 59.455 28.3349 59.3215C28.8334 59.1818 29.3099 58.9744 29.7506 58.7055C30.2948 58.3669 30.767 57.9271 31.1408 57.4107Z" fill="#082148"/>
<path d="M33.9978 57.4107C33.2267 56.2876 32.7571 54.9901 32.633 53.6395C32.5713 53.1433 32.55 52.6431 32.5692 52.1436C32.5692 51.779 32.5692 51.5527 32.5692 51.5527C33.0689 51.6836 33.5491 51.878 33.9978 52.131C35.0188 52.6742 35.8934 53.45 36.5486 54.3937C37.202 55.4431 37.68 56.5891 37.9644 57.7879C37.9644 58.0393 38.0919 58.2781 38.1302 58.4918C38.1685 58.7055 38.2195 58.8815 38.245 59.045C38.2809 59.2066 38.3064 59.3704 38.3215 59.5352C37.8127 59.5268 37.307 59.455 36.8165 59.3215C36.3188 59.1794 35.8426 58.9722 35.4007 58.7055C34.8541 58.3654 34.378 57.926 33.9978 57.4107Z" fill="#082148"/>
<path d="M52.1093 8.56074C52.9987 8.92952 53.7827 9.50795 54.3923 10.2452C54.6179 10.5131 54.8266 10.7944 55.0173 11.0875C55.1576 11.3012 55.2341 11.4395 55.2341 11.4395C54.9058 11.5554 54.562 11.6232 54.2137 11.6406C53.4214 11.7061 52.6248 11.581 51.8924 11.276C51.1028 10.9062 50.3758 10.4186 49.7369 9.8304L49.367 9.47842L49.0864 9.2144C49.0001 9.13156 48.9191 9.0434 48.8441 8.95043C49.1309 8.75962 49.4446 8.61137 49.7752 8.51044C50.1145 8.4069 50.4661 8.34775 50.8211 8.33447C51.2605 8.33644 51.6962 8.41297 52.1093 8.56074Z" fill="#082148"/>
<path d="M55.9609 15.5128C56.8063 16.1788 57.4685 17.0432 57.8869 18.0269C57.9889 18.2406 58.0654 18.4417 58.142 18.6177C58.2068 18.7779 58.2622 18.9415 58.3078 19.108C58.3971 19.3845 58.4353 19.548 58.4353 19.548C58.051 19.5733 57.6649 19.548 57.2874 19.4725C56.8985 19.3972 56.5182 19.2835 56.1523 19.1331C55.6969 18.9455 55.2682 18.7004 54.8768 18.404C54.1387 17.777 53.5059 17.0388 53.0019 16.2167C52.7851 15.8647 52.5938 15.563 52.479 15.3367L52.3004 14.9722L52.6065 14.8968C52.8793 14.8411 53.157 14.8117 53.4356 14.8088C53.8264 14.7998 54.2167 14.8421 54.5962 14.9345C55.0831 15.0436 55.5456 15.2396 55.9609 15.5128Z" fill="#082148"/>
<path d="M57.9252 23.1927C58.6354 24.1143 59.0764 25.2097 59.2006 26.3605C59.2006 26.6119 59.2006 26.8508 59.2772 27.0645V27.6176C59.2772 27.9445 59.2772 28.133 59.2772 28.133L58.9328 28.0199C58.6484 27.9122 58.3715 27.7862 58.1038 27.6427C57.7303 27.4412 57.3797 27.201 57.0579 26.9262C56.6625 26.6024 56.3148 26.2258 56.0248 25.8074C55.4584 24.969 55.0281 24.0486 54.7493 23.0795C54.7493 22.8784 54.6218 22.6899 54.5708 22.5139C54.5198 22.3379 54.4942 22.1745 54.456 22.0488L54.3539 21.6339C54.7824 21.6099 55.2121 21.648 55.6294 21.747C56.0462 21.8363 56.4464 21.989 56.8156 22.1996C57.2436 22.4614 57.6196 22.7979 57.9252 23.1927Z" fill="#082148"/>
<path d="M57.3385 30.9621C57.7288 32.1541 57.773 33.4299 57.466 34.6453C57.4437 34.7768 57.4139 34.9069 57.3767 35.035C57.3767 35.1607 57.3002 35.2864 57.2619 35.387C57.2237 35.4876 57.1344 35.8144 57.0706 35.9778C57.0303 36.1034 56.9791 36.2254 56.9176 36.3424V36.4807L56.6115 36.2544C56.3586 36.0435 56.124 35.8122 55.91 35.563C55.2228 34.8079 54.7171 33.9099 54.4304 32.9357C54.161 31.889 54.0493 30.8089 54.0988 29.7302C54.0988 29.5039 54.0988 29.2902 54.0988 29.1016C54.0988 28.9131 54.0988 28.7496 54.0988 28.6113C54.0988 28.4731 54.0988 28.1714 54.0988 28.1714C54.2212 28.1979 54.3408 28.2357 54.4559 28.2845C54.7671 28.3872 55.0664 28.5221 55.3488 28.6868C55.7468 28.9128 56.108 29.1967 56.4201 29.529C56.6063 29.7298 56.7769 29.9441 56.9303 30.1701C57.0892 30.4221 57.2258 30.687 57.3385 30.9621Z" fill="#082148"/>
<path d="M54.3284 38.1645C54.3284 38.328 54.3284 38.5039 54.3284 38.6799C54.3402 38.8515 54.3402 39.0237 54.3284 39.1953C54.2795 39.5372 54.1983 39.8739 54.0861 40.201C54.0861 40.3644 53.9713 40.5278 53.9075 40.6787C53.8437 40.8295 53.8438 40.8421 53.8182 40.9175L53.7035 41.1438C53.5632 41.4455 53.4101 41.7221 53.257 41.9861C52.9961 42.4262 52.7019 42.8464 52.377 43.2431L51.9816 43.6831C51.8939 43.5777 51.817 43.464 51.752 43.3437C51.5648 43.0385 51.4028 42.719 51.2673 42.3883C51.0801 41.9329 50.9349 41.4616 50.8337 40.9804C50.7156 40.4013 50.6643 39.8109 50.6806 39.2205C50.7633 38.0644 51.0124 36.9258 51.4204 35.8389C51.5097 35.6127 51.5735 35.3864 51.65 35.1978C51.7265 35.0093 51.803 34.8458 51.8541 34.7076C51.9051 34.5693 52.0454 34.2676 52.0454 34.2676L52.377 34.5064C52.6598 34.7192 52.9205 34.9593 53.155 35.223C53.3119 35.3932 53.4568 35.5738 53.5887 35.7635C53.7365 35.978 53.8646 36.2052 53.9713 36.4423C54.0959 36.7046 54.1941 36.9783 54.2646 37.2594C54.3121 37.5588 54.3334 37.8616 54.3284 38.1645Z" fill="#082148"/>
<path d="M49.2011 44.0602C48.9795 44.7636 48.6341 45.4231 48.1808 46.0087C47.9549 46.2949 47.7122 46.5677 47.4538 46.8258L47.0711 47.1904L46.6757 47.5046C46.2769 47.8408 45.8503 48.1436 45.4003 48.4097C45.2217 48.5228 45.0687 48.5731 44.9666 48.636H44.8136C44.8136 48.636 44.8136 48.4851 44.7243 48.2086C44.6572 47.8348 44.6188 47.4566 44.6095 47.0772C44.5961 46.5473 44.6303 46.0173 44.7115 45.4933C44.7115 45.2167 44.8136 44.915 44.8901 44.6133C44.9723 44.3028 45.0702 43.9965 45.1835 43.6956C45.6653 42.5882 46.2866 41.5451 47.0329 40.5907C47.0779 40.5505 47.1166 40.5038 47.1477 40.4524L47.2624 40.3015L47.4665 40.0376C47.6068 39.8742 47.7344 39.7358 47.8236 39.6101C47.9129 39.4844 48.1553 39.2456 48.1553 39.2456C48.2546 39.3507 48.3442 39.4642 48.4231 39.585C48.6442 39.8918 48.8323 40.2204 48.9843 40.5655C49.0931 40.7882 49.1827 41.0195 49.2521 41.2569C49.3296 41.5202 49.385 41.7893 49.4179 42.0615C49.4442 42.371 49.4442 42.6821 49.4179 42.9917C49.3838 43.3543 49.3111 43.7125 49.2011 44.0602Z" fill="#082148"/>
<path d="M42.454 47.8696C42.2134 48.1744 41.9444 48.4564 41.6504 48.7118C41.3434 48.9634 41.0195 49.1944 40.6811 49.4032C40.3373 49.5926 39.984 49.7646 39.6225 49.9186C39.2654 50.0569 38.921 50.17 38.5766 50.2706C38.0164 50.4179 37.4447 50.5188 36.8675 50.5723C36.4339 50.5723 36.166 50.5723 36.166 50.5723C36.192 50.4157 36.226 50.2604 36.2681 50.1072C36.3731 49.7174 36.5052 49.3352 36.6634 48.9632C36.7655 48.7244 36.8803 48.4856 37.0078 48.2342C37.1354 47.9827 37.1354 47.9828 37.2119 47.857L37.4415 47.4548C37.6082 47.1843 37.7914 46.9241 37.9899 46.6754C38.1849 46.3986 38.4025 46.1379 38.6404 45.896C39.503 45.0168 40.471 44.2443 41.5229 43.5955L41.829 43.407L42.1096 43.231L42.6198 42.9293C42.7598 42.8419 42.9046 42.7622 43.0534 42.6904C43.1181 42.8321 43.1694 42.9794 43.2065 43.1304C43.3221 43.5117 43.399 43.9033 43.4361 44.2995C43.4927 44.8497 43.4626 45.4052 43.3468 45.9463C43.2039 46.6467 42.8983 47.305 42.454 47.8696Z" fill="#082148"/>
<path d="M53.7672 7.31589C53.9036 8.28916 54.1829 9.2377 54.5963 10.1317C54.7621 10.5214 54.9279 10.8483 55.0427 11.0871C55.1575 11.326 55.234 11.4517 55.234 11.4517C55.5121 11.2353 55.7532 10.9764 55.9482 10.6849C56.4284 9.99627 56.6577 9.16764 56.5987 8.33412C56.5023 7.26578 56.1481 6.23564 55.5656 5.32968C55.4508 5.12855 55.3233 4.94001 55.2085 4.76402L54.8896 4.33658L54.5835 3.95947C54.3688 4.24366 54.1969 4.55698 54.0733 4.8897C53.942 5.23084 53.8479 5.58482 53.7927 5.94564C53.7131 6.3984 53.7045 6.86056 53.7672 7.31589Z" fill="#082148"/>
<path d="M58.0909 14.6827C57.9507 15.7568 57.9722 16.8455 58.1547 17.9134C58.1547 18.1397 58.1547 18.3659 58.2567 18.5545C58.2749 18.7239 58.3047 18.8919 58.346 19.0574C58.346 19.3465 58.4353 19.5099 58.4353 19.5099C58.7939 19.3631 59.1257 19.1593 59.4173 18.9065C59.7326 18.6491 60.0039 18.3435 60.2209 18.0014C60.5075 17.5682 60.7107 17.0867 60.8203 16.5809C61.0243 15.416 60.9545 14.2204 60.6163 13.0862C60.506 12.6595 60.3697 12.2397 60.2081 11.8291C60.0806 11.5149 59.9913 11.3389 59.9913 11.3389L59.7362 11.54C59.5277 11.7336 59.3357 11.9438 59.1623 12.1685C58.9142 12.4872 58.7045 12.8331 58.5373 13.1994C58.3206 13.6714 58.1704 14.1705 58.0909 14.6827Z" fill="#082148"/>
<path d="M60.3613 22.9295C59.9038 24.0314 59.5827 25.1837 59.4047 26.3613C59.4047 26.6127 59.3282 26.8516 59.2899 27.0653C59.2516 27.279 59.2899 27.4675 59.2006 27.6309C59.1113 27.7943 59.2006 28.1338 59.2006 28.1338H59.545C59.8506 28.0805 60.1498 27.9963 60.4378 27.8824C60.8538 27.716 61.241 27.487 61.5857 27.2035C62.0339 26.8288 62.4098 26.3774 62.6954 25.871C63.2856 24.6652 63.5742 23.3376 63.5371 21.9992C63.5371 21.7101 63.5371 21.4336 63.5371 21.1821C63.5371 20.9307 63.5371 20.717 63.5371 20.5284C63.5371 20.3399 63.4479 19.9502 63.4479 19.9502C63.052 20.1199 62.6827 20.3442 62.351 20.6164C61.9906 20.8864 61.665 21.1988 61.3816 21.5467C60.9853 21.9646 60.6426 22.429 60.3613 22.9295Z" fill="#082148"/>
<path d="M60.0041 31.6156C59.144 32.5964 58.3955 33.6671 57.7721 34.8086L57.5808 35.1606C57.5042 35.2737 57.4532 35.3868 57.3894 35.4874C57.3257 35.588 57.1854 35.8771 57.1088 36.0405C57.0323 36.2039 56.8538 36.5308 56.8538 36.5308L57.2364 36.6188C57.567 36.6552 57.9006 36.6552 58.2312 36.6188C59.3664 36.5689 60.4466 36.1234 61.2796 35.3617C62.352 34.313 63.1412 33.0166 63.5754 31.5905C63.6901 31.2762 63.7667 30.9745 63.8432 30.7105C63.9197 30.4465 63.9707 30.1951 64.009 29.994C64.0855 29.5791 64.111 29.3403 64.111 29.3403C63.9838 29.3286 63.8557 29.3286 63.7284 29.3403C63.3924 29.3993 63.0633 29.4919 62.7463 29.6169C62.2995 29.7961 61.8722 30.0194 61.4709 30.2831C61.2251 30.4385 60.9907 30.6107 60.7694 30.7985C60.4925 31.0503 60.2366 31.3235 60.0041 31.6156Z" fill="#082148"/>
<path d="M56.8537 39.6609C56.6879 39.7489 56.5348 39.8495 56.3818 39.9501C56.217 40.0388 56.0592 40.1396 55.9099 40.2518C55.591 40.4529 55.2977 40.6792 55.0043 40.8929L54.5962 41.2323L54.3921 41.3957L54.188 41.5591L53.4483 42.2003C52.9763 42.6025 52.6192 42.9796 52.3259 43.231L51.905 43.6459L52.2493 43.8596C52.5707 44.0266 52.9082 44.1614 53.2569 44.2618C53.7651 44.4133 54.2952 44.4813 54.8257 44.463C55.5219 44.4392 56.2065 44.2812 56.841 43.9979C58.2886 43.2834 59.5367 42.2303 60.476 40.9306C60.6928 40.6415 60.8714 40.3523 61.0499 40.1009C61.2285 39.8495 61.356 39.6107 61.4581 39.4095C61.5601 39.2084 61.7897 38.781 61.7897 38.781C61.6565 38.7424 61.5198 38.7171 61.3815 38.7056C61.0125 38.6704 60.6409 38.6704 60.2719 38.7056L59.5321 38.781C59.2484 38.8241 58.9674 38.8828 58.6903 38.957C58.3865 39.0388 58.0883 39.1395 57.7975 39.2587C57.4736 39.3705 57.1582 39.5049 56.8537 39.6609Z" fill="#082148"/>
<path d="M51.2673 46.4368C50.4741 46.587 49.6937 46.7971 48.9332 47.0653C48.5761 47.2036 48.2062 47.3167 47.8618 47.455L47.3517 47.6562L46.867 47.8321C46.2548 48.0835 45.7191 48.2847 45.3492 48.4481L44.9156 48.6367H44.7498C44.8324 48.7588 44.9218 48.8763 45.0176 48.9887C45.2756 49.2795 45.5618 49.5447 45.8722 49.7806C46.3284 50.1179 46.8365 50.381 47.3772 50.56C47.7143 50.6646 48.0599 50.7403 48.4103 50.7863C48.8344 50.8283 49.2617 50.8283 49.6857 50.7863C50.1163 50.7445 50.5428 50.6688 50.9612 50.56C51.3944 50.4323 51.8202 50.2812 52.2366 50.1074C52.6575 49.9314 53.0529 49.7177 53.5121 49.5166C53.9712 49.3155 54.2518 49.0641 54.5834 48.8378L54.8258 48.6744L55.0554 48.4984L55.4763 48.1716C55.7314 47.9579 55.9609 47.7693 56.1395 47.5933L56.7007 47.0402C56.5759 46.957 56.4436 46.8854 56.3053 46.8265C55.9433 46.6648 55.5678 46.5345 55.1829 46.4368C54.9229 46.3697 54.6588 46.3193 54.3921 46.2859C54.0885 46.2355 53.7816 46.2061 53.4738 46.1979C53.1299 46.173 52.7846 46.173 52.4407 46.1979C52.0435 46.2455 51.6511 46.3254 51.2673 46.4368Z" fill="#082148"/>
<path d="M48.6782 5.35503C49.5236 6.03247 50.4434 6.61436 51.4204 7.0898C51.6117 7.19037 51.803 7.26581 51.9688 7.34124C52.1136 7.41673 52.2626 7.48389 52.4153 7.54237L52.8234 7.73093L52.7469 7.31611C52.7469 7.17783 52.6831 7.0144 52.6321 6.83841L52.428 6.235C52.0039 5.11816 51.3022 4.12406 50.3873 3.34373C50.2567 3.23619 50.1205 3.13546 49.9791 3.04201L49.5583 2.76545L49.1374 2.53918C48.9971 2.46376 48.844 2.41348 48.7037 2.35063L48.2956 2.1872L47.8874 2.07407L47.5048 1.97352L47.1349 1.91064H46.4972H46.0125H45.5916L45.8339 2.26263L46.1273 2.63977C46.2293 2.77805 46.3569 2.94146 46.4972 3.10488C47.1426 3.92787 47.8735 4.68201 48.6782 5.35503Z" fill="#082148"/>
<path d="M43.5891 51.0243C43.1677 50.942 42.7418 50.8832 42.3137 50.8483C41.88 50.8483 41.4464 50.7603 41.0382 50.7478C40.6301 50.7352 40.1964 50.7478 39.7628 50.7478H38.6276C37.9134 50.7478 37.3522 50.7478 36.8675 50.7478H36.166C36.1933 50.9052 36.2317 51.0606 36.2808 51.2129C36.3899 51.6038 36.5485 51.9797 36.7527 52.3317C36.8905 52.5785 37.0483 52.814 37.2246 53.0357C37.3139 53.1614 37.4287 53.2745 37.5307 53.4002L37.9006 53.7396C38.1854 53.9285 38.4838 54.0966 38.7934 54.2425C39.1998 54.4564 39.6271 54.6291 40.0689 54.7579C40.5423 54.9054 41.0293 55.0064 41.5229 55.0595C42.0302 55.1249 42.5424 55.1459 43.0534 55.1224C43.558 55.1144 44.0611 55.0681 44.5585 54.9841C45.0276 54.917 45.492 54.8204 45.9487 54.695L46.5737 54.519L47.1349 54.3305C47.492 54.2047 47.8108 54.0916 48.0659 53.9785C48.5761 53.7522 48.8695 53.5888 48.8695 53.5888C48.7658 53.4694 48.655 53.356 48.5378 53.2493C48.2257 52.961 47.8886 52.7003 47.5302 52.47C47.0032 52.1391 46.4485 51.8531 45.8722 51.6152C45.1344 51.3396 44.3691 51.1415 43.5891 51.0243Z" fill="#082148"/>
<path d="M27.2069 33.0444V30.9665L33.8468 24.661C34.4041 24.1355 34.8181 23.6737 35.0888 23.2757C35.3595 22.8776 35.5346 22.5114 35.6142 22.177C35.7098 21.8267 35.7575 21.5003 35.7575 21.1977C35.7575 20.4334 35.4948 19.8443 34.9693 19.4303C34.4439 19.0003 33.6716 18.7854 32.6525 18.7854C31.8405 18.7854 31.1001 18.9287 30.4313 19.2153C29.7784 19.5019 29.2132 19.9398 28.7355 20.529L26.562 18.857C27.2148 17.9813 28.0906 17.3045 29.1893 16.8269C30.3039 16.3332 31.5459 16.0864 32.9153 16.0864C34.1254 16.0864 35.1763 16.2855 36.068 16.6835C36.9756 17.0657 37.6683 17.615 38.146 18.3316C38.6396 19.0481 38.8864 19.9 38.8864 20.8872C38.8864 21.4286 38.8147 21.97 38.6714 22.5114C38.5281 23.0368 38.2574 23.5941 37.8594 24.1833C37.4613 24.7724 36.8801 25.4332 36.1158 26.1657L30.4074 31.5875L29.7625 30.4171H39.5313V33.0444H27.2069Z" fill="#082148"/>
<path d="M89.8497 6.98946C89.699 7.97478 89.4115 8.93496 88.9951 9.84301C88.8166 10.2453 88.6508 10.5721 88.536 10.811C88.4789 10.9422 88.4107 11.0683 88.3319 11.1881C88.0599 10.9691 87.8234 10.7105 87.6304 10.4213C87.1546 9.72173 86.9301 8.88532 86.9927 8.0454C87.0999 6.96384 87.4625 5.922 88.0513 5.00325C88.1789 4.78955 88.3064 4.58842 88.4212 4.425C88.5235 4.27251 88.6342 4.12563 88.7528 3.98502L89.0589 3.60791C89.2736 3.8921 89.4455 4.20541 89.5691 4.53814C89.7017 4.88239 89.7916 5.24116 89.8369 5.60666C89.9058 6.06481 89.9101 6.53015 89.8497 6.98946Z" fill="#082148"/>
<path d="M85.5387 14.5061C85.6623 15.5982 85.6366 16.7017 85.4621 17.7871C85.4621 18.0259 85.3984 18.2396 85.3601 18.4407C85.3218 18.6419 85.2963 18.8053 85.2708 18.9561L85.1688 19.4087C84.81 19.2567 84.4783 19.0487 84.1867 18.7927C83.8787 18.528 83.6085 18.2236 83.3832 17.8876C83.1061 17.4419 82.9077 16.9531 82.7964 16.442C82.5967 15.2677 82.6709 14.064 83.0133 12.9222C83.1266 12.4948 83.2671 12.075 83.4342 11.6651C83.5617 11.3508 83.651 11.1748 83.651 11.1748L83.8933 11.3759C84.1019 11.5695 84.2938 11.7798 84.4673 12.0045C84.7225 12.3228 84.9327 12.6738 85.0922 13.0479C85.3068 13.512 85.4569 14.0025 85.5387 14.5061Z" fill="#082148"/>
<path d="M83.3322 22.8915C83.7843 24.0126 84.1052 25.1808 84.2888 26.3736C84.2888 26.625 84.3653 26.8764 84.4036 27.0901C84.4418 27.3038 84.4036 27.4924 84.4801 27.6558C84.5566 27.8193 84.5439 28.1587 84.5439 28.1587C84.425 28.1679 84.3056 28.1679 84.1868 28.1587C83.8858 28.1034 83.591 28.0192 83.3067 27.9072C82.8914 27.7341 82.5046 27.5011 82.1588 27.2158C81.7069 26.8348 81.3307 26.3745 81.0492 25.8582C80.4539 24.6406 80.1651 23.2996 80.2074 21.9487C80.1875 21.6725 80.1875 21.3952 80.2074 21.119C80.2074 20.8676 80.2074 20.6413 80.2074 20.4528C80.2074 20.2642 80.2966 19.8745 80.2966 19.8745C80.699 20.0392 81.0733 20.2639 81.4063 20.5408C81.7594 20.8193 82.0802 21.1355 82.3629 21.4836C82.7448 21.9108 83.0705 22.3838 83.3322 22.8915Z" fill="#082148"/>
<path d="M83.7786 31.6154C84.6504 32.6036 85.4037 33.6877 86.0234 34.8461L86.2274 35.2106C86.2912 35.3238 86.355 35.4244 86.406 35.5375C86.457 35.6506 86.6228 35.9272 86.6993 36.0906L86.9544 36.5809C86.8297 36.6211 86.7017 36.6505 86.5718 36.6689C86.2369 36.7052 85.8991 36.7052 85.5642 36.6689C84.4303 36.6136 83.3518 36.1689 82.5159 35.4118C81.448 34.3574 80.6557 33.0633 80.2073 31.6405C80.0925 31.3263 80.016 31.0246 79.9395 30.748C79.8629 30.4715 79.8119 30.2326 79.7737 30.0315C79.6971 29.6166 79.6716 29.3652 79.6716 29.3652H80.0543C80.389 29.4355 80.7174 29.5322 81.0364 29.6544C81.4831 29.8337 81.9104 30.0569 82.3118 30.3206C82.557 30.4815 82.7913 30.6579 83.0133 30.8486C83.291 31.0813 83.5471 31.3379 83.7786 31.6154Z" fill="#082148"/>
<path d="M87.0437 39.7613L87.5284 40.0379L88.0003 40.3396L88.8931 40.9932L89.314 41.3327L89.5181 41.5087L89.7221 41.6721L90.4619 42.3257C90.9338 42.7154 91.3037 43.0926 91.5843 43.344L92.0179 43.7714C91.9048 43.8518 91.7854 43.9233 91.6608 43.9851C91.3451 44.1547 91.0115 44.2896 90.666 44.3874C90.157 44.5344 89.627 44.5981 89.0972 44.5759C88.3969 44.5521 87.7081 44.3942 87.0692 44.1108C85.6073 43.3905 84.3463 42.3289 83.3959 41.0184C83.1791 40.7293 82.9878 40.4401 82.822 40.1887C82.6562 39.9373 82.5031 39.6984 82.4011 39.4973C82.1842 39.0951 82.0695 38.8562 82.0695 38.8562L82.4904 38.7808C82.8551 38.7456 83.2225 38.7456 83.5872 38.7808L84.327 38.8562C84.5948 38.8562 84.8754 38.9568 85.1688 39.0322C85.4621 39.1076 85.7683 39.2208 86.0744 39.3465C86.4071 39.4617 86.7311 39.6003 87.0437 39.7613Z" fill="#082148"/>
<path d="M92.7322 46.499C93.5239 46.6609 94.3037 46.8751 95.0663 47.1401C95.4362 47.2658 95.8061 47.3915 96.1504 47.5298L96.6606 47.7309L97.1325 47.9069C97.7575 48.1583 98.2932 48.3595 98.6631 48.5355L99.1095 48.724L99.2625 48.7869C99.1799 48.909 99.0904 49.0265 98.9947 49.1389C98.7432 49.4358 98.4563 49.7017 98.1401 49.9308C97.6831 50.2639 97.175 50.5227 96.6351 50.6976C96.2996 50.8082 95.9534 50.884 95.602 50.9239C95.1779 50.9654 94.7506 50.9654 94.3265 50.9239C93.8969 50.8758 93.4708 50.8003 93.0511 50.6976C92.6178 50.5699 92.1921 50.4189 91.7756 50.2451C91.3548 50.0565 90.9466 49.8554 90.5002 49.6417C90.0538 49.428 89.7604 49.1891 89.4161 48.9629L89.1737 48.7995L88.9442 48.6235L88.536 48.2966C88.2682 48.0829 88.0386 47.8944 87.86 47.7184C87.6815 47.5424 87.2988 47.1527 87.2988 47.1527C87.4261 47.0773 87.5581 47.0101 87.6942 46.9516C88.0562 46.7899 88.4318 46.6595 88.8166 46.5619C89.0769 46.496 89.341 46.4456 89.6074 46.411C89.9111 46.3612 90.2179 46.3318 90.5257 46.323C91.2561 46.2948 91.9875 46.3454 92.7067 46.4739L92.7322 46.499Z" fill="#082148"/>
<path d="M100.461 51.0243C100.883 50.942 101.309 50.8832 101.737 50.8483C102.171 50.8483 102.604 50.7603 103.012 50.7478C103.42 50.7352 103.854 50.7478 104.288 50.7478H105.423C106.137 50.7478 106.698 50.7478 107.183 50.7478H107.885C107.859 50.9044 107.825 51.0597 107.782 51.2129C107.662 51.6019 107.5 51.9771 107.298 52.3317C107.16 52.5785 107.002 52.814 106.826 53.0357C106.732 53.1632 106.629 53.285 106.52 53.4002C106.403 53.5195 106.279 53.6328 106.15 53.7396C105.859 53.9864 105.547 54.2093 105.219 54.4059C104.813 54.6198 104.385 54.7925 103.943 54.9213C103.474 55.0673 102.991 55.1683 102.502 55.223C101.995 55.2878 101.483 55.3088 100.972 55.2858C100.463 55.2783 99.9554 55.2321 99.4538 55.1476C98.9849 55.0792 98.5206 54.9826 98.0636 54.8584L97.4386 54.6824L96.8774 54.4939C96.5203 54.3682 96.2014 54.255 95.9591 54.1419C95.4489 53.9156 95.1428 53.7522 95.1428 53.7522C95.2492 53.6311 95.3643 53.5177 95.4872 53.4128C95.7944 53.1241 96.1274 52.8633 96.482 52.6334C97.0091 52.3025 97.5638 52.0166 98.1401 51.7786C98.8837 51.4445 99.6621 51.1916 100.461 51.0243Z" fill="#082148"/>
<path d="M91.5078 8.23361C90.5866 8.60865 89.7754 9.20505 89.1482 9.96839C88.9168 10.2436 88.7038 10.5334 88.5105 10.8358L88.2809 11.1878C88.6133 11.3046 88.9615 11.3723 89.314 11.3889C90.1294 11.4527 90.9482 11.319 91.6991 10.9992C92.497 10.6094 93.232 10.1053 93.8801 9.50327L94.2627 9.15129C94.3775 9.03815 94.4796 8.95015 94.5561 8.86215L94.7984 8.59817C94.5125 8.40891 94.1983 8.26472 93.8673 8.17077C93.1025 7.91313 92.2726 7.91313 91.5078 8.17077V8.23361Z" fill="#082148"/>
<path d="M87.6688 15.349C86.8234 16.0179 86.1577 16.8812 85.7301 17.8631C85.628 18.081 85.5388 18.2822 85.4622 18.4665L85.2964 18.9568C85.2071 19.2333 85.1689 19.4093 85.1689 19.4093C85.5579 19.4259 85.9476 19.3964 86.3295 19.3213C86.7166 19.2487 87.0934 19.1305 87.4519 18.9693C87.9095 18.7861 88.3388 18.5407 88.7274 18.2402C89.4712 17.596 90.1081 16.841 90.615 16.0026C90.8446 15.6506 91.0232 15.3364 91.1507 15.1101L91.3293 14.7455L91.0232 14.6701C90.7514 14.6082 90.4731 14.5786 90.1941 14.5822C89.8024 14.5711 89.4112 14.6177 89.0335 14.7204C88.5428 14.8444 88.08 15.0575 87.6688 15.349Z" fill="#082148"/>
<path d="M85.8321 23.1551C85.1189 24.0894 84.6779 25.1977 84.5566 26.3607C84.5566 26.6247 84.5566 26.8636 84.4929 27.0773V27.6555C84.4929 27.9698 84.4929 28.1583 84.4929 28.1583C84.6057 28.1328 84.7166 28.0992 84.8245 28.0578C85.1165 27.9534 85.3983 27.8229 85.6663 27.668C86.0379 27.4587 86.3881 27.2146 86.7121 26.939C87.1042 26.6069 87.4514 26.2267 87.7452 25.8076C88.3052 24.9521 88.7349 24.0203 89.0207 23.042C89.0207 22.8283 89.1482 22.6272 89.1865 22.4512C89.2248 22.2752 89.2758 22.1118 89.314 21.9861L89.4161 21.5587C88.9871 21.5435 88.5581 21.5858 88.1406 21.6844C87.7273 21.7848 87.3287 21.9369 86.9545 22.1369C86.524 22.4105 86.1443 22.7549 85.8321 23.1551Z" fill="#082148"/>
<path d="M86.4441 31.0242C86.0545 32.2469 86.0148 33.5519 86.3293 34.7955C86.3293 34.9337 86.3931 35.0594 86.4186 35.1852L86.5334 35.5497C86.6099 35.776 86.6737 35.9645 86.7375 36.128C86.7759 36.2583 86.8271 36.3846 86.8905 36.5051L86.9543 36.6434L87.2604 36.4171C87.5102 36.2029 87.7446 35.9718 87.9619 35.7257C88.6425 34.9584 89.1433 34.0529 89.4287 33.0733C89.6975 32.0136 89.8092 30.9212 89.7603 29.83C89.7603 29.6037 89.7603 29.39 89.7603 29.2014C89.7603 29.0129 89.7603 28.8369 89.7603 28.6986C89.7603 28.5603 89.7603 28.2461 89.7603 28.2461L89.4032 28.3592C89.0942 28.4725 88.7956 28.6112 88.5104 28.774C87.8742 29.1427 87.3364 29.6555 86.9416 30.27C86.7497 30.5038 86.583 30.7565 86.4441 31.0242Z" fill="#082148"/>
<path d="M89.5691 38.2532C89.5691 38.4292 89.5691 38.6052 89.5691 38.7687C89.5691 38.9321 89.5691 39.1206 89.5691 39.2841C89.6209 39.6307 89.7063 39.9717 89.8242 40.3023L89.99 40.7925C89.99 40.868 90.0538 40.9434 90.0921 41.0314L90.2068 41.2577C90.3471 41.5468 90.5002 41.8359 90.6532 42.0999C90.9192 42.5399 91.2176 42.9601 91.5461 43.357L91.9414 43.8096C92.0253 43.7014 92.102 43.588 92.171 43.4701C92.3582 43.1649 92.5203 42.8455 92.6557 42.5148C92.8429 42.0549 92.988 41.5795 93.0894 41.0943C93.2098 40.5156 93.2569 39.9245 93.2297 39.3344C93.1443 38.1693 92.8909 37.0222 92.4771 35.9276C92.3879 35.7014 92.3113 35.4751 92.2348 35.2866C92.1583 35.098 92.0817 34.9346 92.0307 34.7963C91.978 34.6411 91.9141 34.4899 91.8394 34.3438L91.5078 34.5826C91.228 34.7989 90.9677 35.0387 90.7298 35.2991C90.573 35.4739 90.4282 35.6586 90.2961 35.8522C90.16 36.0671 90.0365 36.2896 89.9262 36.5185C89.7993 36.7855 89.6968 37.0631 89.6201 37.3481C89.5771 37.6479 89.5601 37.9507 89.5691 38.2532Z" fill="#082148"/>
<path d="M94.7985 44.1863C95.0185 44.8966 95.3686 45.5613 95.8316 46.1473C96.05 46.4395 96.2932 46.7128 96.5586 46.9644L96.9412 47.329L97.3238 47.6558C97.7524 47.9884 98.2042 48.2909 98.6758 48.5609L99.1095 48.7746L99.2625 48.85C99.3032 48.7057 99.333 48.5587 99.3518 48.4101C99.4197 48.0407 99.4581 47.6666 99.4666 47.2913C99.4804 46.7614 99.4462 46.2313 99.3646 45.7073C99.3646 45.4182 99.2625 45.1165 99.186 44.8148C99.1052 44.5024 99.0029 44.1958 98.8799 43.8971C98.4038 42.7842 97.7775 41.7398 97.0177 40.7922L96.903 40.6413L96.8009 40.4151C96.7371 40.3145 96.6606 40.2265 96.5968 40.1385C96.5331 40.0505 96.329 39.8368 96.2397 39.7111L95.9081 39.334C95.8111 39.4454 95.7217 39.563 95.6403 39.686C95.4192 39.9927 95.2311 40.3213 95.0791 40.6665C94.9758 40.8914 94.8863 41.1223 94.8112 41.3579C94.74 41.6226 94.6846 41.8913 94.6454 42.1624C94.613 42.4717 94.613 42.7834 94.6454 43.0926C94.6569 43.4615 94.7082 43.8281 94.7985 44.1863Z" fill="#082148"/>
<path d="M93.268 2.94132C92.3555 3.74645 91.6664 4.76747 91.2655 5.90801C91.189 6.13428 91.1125 6.33544 91.0614 6.524C91.0104 6.71256 90.9849 6.86342 90.9594 7.0017C90.9339 7.13998 90.8956 7.41652 90.8956 7.41652C91.0303 7.36915 91.1623 7.31459 91.291 7.25309L91.7374 7.03941L92.2986 6.75027C93.2884 6.23823 94.2168 5.61838 95.0663 4.90236C95.8841 4.17099 96.6274 3.36261 97.2856 2.48875L97.6683 1.99851C97.783 1.84766 97.8723 1.72197 97.9616 1.6214L98.2039 1.25684H97.7575H97.2474C97.056 1.25684 96.8392 1.25682 96.5969 1.35739C96.3328 1.3993 96.0726 1.46236 95.8189 1.54594L95.398 1.67166L94.9771 1.86021L94.5434 2.06135C94.3945 2.13768 94.2498 2.22161 94.1098 2.31278L93.6761 2.60192L93.268 2.94132Z" fill="#082148"/>
<path d="M101.597 47.8692C101.841 48.1711 102.109 48.4528 102.4 48.7115C102.709 48.9601 103.033 49.1909 103.369 49.4029C103.727 49.5914 104.071 49.7674 104.428 49.9183C104.785 50.0691 105.142 50.1697 105.474 50.2702C106.034 50.4175 106.606 50.5184 107.183 50.5719C107.629 50.5719 107.885 50.5719 107.885 50.5719C107.859 50.4153 107.825 50.26 107.782 50.1068C107.677 49.717 107.545 49.3348 107.387 48.9629C107.286 48.7139 107.171 48.4705 107.043 48.2338C106.979 48.1081 106.915 47.9824 106.839 47.8567C106.762 47.731 106.698 47.5927 106.609 47.4544C106.52 47.3161 106.265 46.9264 106.073 46.675C105.871 46.4042 105.653 46.144 105.423 45.8956C104.555 45.0224 103.588 44.2506 102.54 43.5952L102.222 43.4066L101.941 43.2306L101.456 42.9415C101.316 42.8541 101.171 42.7744 101.023 42.7026C101.023 42.7026 100.959 42.8535 100.87 43.1426C100.76 43.5253 100.683 43.9164 100.64 44.3117C100.583 44.8619 100.613 45.4174 100.729 45.9585C100.872 46.6505 101.168 47.3029 101.597 47.8692Z" fill="#082148"/>
<path d="M109.555 57.4107C110.326 56.2876 110.796 54.9901 110.92 53.6395C110.979 53.143 111.004 52.6433 110.997 52.1436C110.997 51.779 110.997 51.5527 110.997 51.5527C110.497 51.6836 110.017 51.878 109.568 52.131C108.55 52.6778 107.676 53.4528 107.017 54.3937C106.364 55.4431 105.886 56.5891 105.602 57.7879C105.602 58.0393 105.487 58.2781 105.436 58.4918C105.385 58.7055 105.346 58.8815 105.321 59.045C105.295 59.2084 105.244 59.5352 105.244 59.5352C105.753 59.5268 106.259 59.455 106.749 59.3215C107.248 59.1818 107.724 58.9744 108.165 58.7055C108.709 58.3669 109.182 57.9271 109.555 57.4107Z" fill="#082148"/>
<path d="M112.412 57.4107C111.641 56.2876 111.172 54.9901 111.048 53.6395C110.986 53.1433 110.965 52.6431 110.984 52.1436C110.984 51.779 110.984 51.5527 110.984 51.5527C111.483 51.6836 111.964 51.878 112.412 52.131C113.433 52.6742 114.308 53.45 114.963 54.3937C115.617 55.4431 116.095 56.5891 116.379 57.7879C116.379 58.0393 116.506 58.2781 116.545 58.4918C116.583 58.7055 116.634 58.8815 116.66 59.045C116.695 59.2066 116.721 59.3704 116.736 59.5352C116.227 59.5268 115.722 59.455 115.231 59.3215C114.733 59.1794 114.257 58.9722 113.815 58.7055C113.269 58.3654 112.793 57.926 112.412 57.4107Z" fill="#082148"/>
<path d="M130.524 8.56074C131.413 8.92952 132.197 9.50795 132.807 10.2452C133.032 10.5131 133.241 10.7944 133.432 11.0875C133.572 11.3012 133.649 11.4395 133.649 11.4395C133.32 11.5554 132.977 11.6232 132.628 11.6406C131.836 11.7061 131.039 11.581 130.307 11.276C129.517 10.9062 128.79 10.4186 128.151 9.8304L127.782 9.47842L127.501 9.2144C127.415 9.13156 127.334 9.0434 127.259 8.95043C127.545 8.75962 127.859 8.61137 128.19 8.51044C128.529 8.4069 128.881 8.34775 129.236 8.33447C129.675 8.33644 130.111 8.41297 130.524 8.56074Z" fill="#082148"/>
<path d="M134.376 15.5128C135.221 16.1788 135.883 17.0432 136.301 18.0269C136.404 18.2406 136.48 18.4417 136.557 18.6177C136.621 18.7779 136.677 18.9415 136.722 19.108C136.812 19.3845 136.85 19.548 136.85 19.548C136.466 19.5733 136.08 19.548 135.702 19.4725C135.313 19.3972 134.933 19.2835 134.567 19.1331C134.112 18.9455 133.683 18.7004 133.291 18.404C132.553 17.777 131.92 17.0388 131.417 16.2167C131.2 15.8647 131.008 15.563 130.894 15.3367L130.715 14.9722L131.021 14.8968C131.294 14.8411 131.572 14.8117 131.85 14.8088C132.241 14.7998 132.631 14.8421 133.011 14.9345C133.498 15.0436 133.96 15.2396 134.376 15.5128Z" fill="#082148"/>
<path d="M136.34 23.1927C137.05 24.1143 137.491 25.2097 137.615 26.3605C137.615 26.6119 137.615 26.8508 137.692 27.0645V27.6176C137.692 27.9445 137.692 28.133 137.692 28.133L137.347 28.0199C137.063 27.9122 136.786 27.7862 136.518 27.6427C136.145 27.4412 135.794 27.201 135.472 26.9262C135.077 26.6024 134.729 26.2258 134.439 25.8074C133.873 24.969 133.443 24.0486 133.164 23.0795C133.164 22.8784 133.036 22.6899 132.985 22.5139C132.934 22.3379 132.909 22.1745 132.871 22.0488L132.768 21.6339C133.197 21.6099 133.627 21.648 134.044 21.747C134.461 21.8363 134.861 21.989 135.23 22.1996C135.658 22.4614 136.034 22.7979 136.34 23.1927Z" fill="#082148"/>
<path d="M135.753 30.9621C136.143 32.1541 136.188 33.4299 135.881 34.6453C135.858 34.7768 135.828 34.9069 135.791 35.035C135.791 35.1607 135.715 35.2864 135.676 35.387C135.638 35.4876 135.549 35.8144 135.485 35.9778C135.445 36.1034 135.394 36.2254 135.332 36.3424V36.4807L135.026 36.2544C134.773 36.0435 134.539 35.8122 134.325 35.563C133.637 34.8079 133.132 33.9099 132.845 32.9357C132.576 31.889 132.464 30.8089 132.513 29.7302C132.513 29.5039 132.513 29.2902 132.513 29.1016C132.513 28.9131 132.513 28.7496 132.513 28.6113C132.513 28.4731 132.513 28.1714 132.513 28.1714C132.636 28.1979 132.755 28.2357 132.87 28.2845C133.182 28.3872 133.481 28.5221 133.763 28.6868C134.161 28.9128 134.523 29.1967 134.835 29.529C135.021 29.7298 135.191 29.9441 135.345 30.1701C135.504 30.4221 135.64 30.687 135.753 30.9621Z" fill="#082148"/>
<path d="M132.743 38.1645C132.743 38.328 132.743 38.5039 132.743 38.6799C132.755 38.8515 132.755 39.0237 132.743 39.1953C132.694 39.5372 132.613 39.8739 132.501 40.201C132.501 40.3644 132.386 40.5278 132.322 40.6787C132.258 40.8295 132.258 40.8421 132.233 40.9175L132.118 41.1438C131.978 41.4455 131.825 41.7221 131.672 41.9861C131.411 42.4262 131.116 42.8464 130.792 43.2431L130.396 43.6831C130.308 43.5777 130.232 43.464 130.167 43.3437C129.979 43.0385 129.817 42.719 129.682 42.3883C129.495 41.9329 129.349 41.4616 129.248 40.9804C129.13 40.4013 129.079 39.8109 129.095 39.2205C129.178 38.0644 129.427 36.9258 129.835 35.8389C129.924 35.6127 129.988 35.3864 130.065 35.1978C130.141 35.0093 130.218 34.8458 130.269 34.7076C130.32 34.5693 130.46 34.2676 130.46 34.2676L130.792 34.5064C131.074 34.7192 131.335 34.9593 131.57 35.223C131.726 35.3932 131.871 35.5738 132.003 35.7635C132.151 35.978 132.279 36.2052 132.386 36.4423C132.51 36.7046 132.609 36.9783 132.679 37.2594C132.727 37.5588 132.748 37.8616 132.743 38.1645Z" fill="#082148"/>
<path d="M127.616 44.0602C127.394 44.7636 127.049 45.4231 126.595 46.0087C126.369 46.2949 126.127 46.5677 125.868 46.8258L125.486 47.1904L125.09 47.5046C124.691 47.8408 124.265 48.1436 123.815 48.4097C123.636 48.5228 123.483 48.5731 123.381 48.636H123.228C123.228 48.636 123.228 48.4851 123.139 48.2086C123.072 47.8348 123.033 47.4566 123.024 47.0772C123.011 46.5473 123.045 46.0173 123.126 45.4933C123.126 45.2167 123.228 44.915 123.305 44.6133C123.387 44.3028 123.485 43.9965 123.598 43.6956C124.08 42.5882 124.701 41.5451 125.447 40.5907C125.492 40.5505 125.531 40.5038 125.562 40.4524L125.677 40.3015L125.881 40.0376C126.021 39.8742 126.149 39.7358 126.238 39.6101C126.327 39.4844 126.57 39.2456 126.57 39.2456C126.669 39.3507 126.759 39.4642 126.838 39.585C127.059 39.8918 127.247 40.2204 127.399 40.5655C127.508 40.7882 127.597 41.0195 127.667 41.2569C127.744 41.5202 127.8 41.7893 127.832 42.0615C127.859 42.371 127.859 42.6821 127.832 42.9917C127.798 43.3543 127.726 43.7125 127.616 44.0602Z" fill="#082148"/>
<path d="M120.869 47.8696C120.628 48.1744 120.359 48.4564 120.065 48.7118C119.758 48.9634 119.434 49.1944 119.096 49.4032C118.752 49.5926 118.399 49.7646 118.037 49.9186C117.68 50.0569 117.336 50.17 116.991 50.2706C116.431 50.4179 115.859 50.5188 115.282 50.5723C114.848 50.5723 114.581 50.5723 114.581 50.5723C114.607 50.4157 114.641 50.2604 114.683 50.1072C114.788 49.7174 114.92 49.3352 115.078 48.9632C115.18 48.7244 115.295 48.4856 115.422 48.2342C115.55 47.9827 115.55 47.9828 115.626 47.857L115.856 47.4548C116.023 47.1843 116.206 46.9241 116.404 46.6754C116.599 46.3986 116.817 46.1379 117.055 45.896C117.918 45.0168 118.886 44.2443 119.937 43.5955L120.244 43.407L120.524 43.231L121.034 42.9293C121.174 42.8419 121.319 42.7622 121.468 42.6904C121.533 42.8321 121.584 42.9794 121.621 43.1304C121.737 43.5117 121.814 43.9033 121.851 44.2995C121.907 44.8497 121.877 45.4052 121.761 45.9463C121.618 46.6467 121.313 47.305 120.869 47.8696Z" fill="#082148"/>
<path d="M132.182 7.31589C132.318 8.28916 132.597 9.2377 133.011 10.1317C133.177 10.5214 133.342 10.8483 133.457 11.0871C133.572 11.326 133.649 11.4517 133.649 11.4517C133.927 11.2353 134.168 10.9764 134.363 10.6849C134.843 9.99627 135.072 9.16764 135.013 8.33412C134.917 7.26578 134.563 6.23564 133.98 5.32968C133.865 5.12855 133.738 4.94001 133.623 4.76402L133.304 4.33658L132.998 3.95947C132.783 4.24366 132.612 4.55698 132.488 4.8897C132.357 5.23084 132.262 5.58482 132.207 5.94564C132.128 6.3984 132.119 6.86056 132.182 7.31589Z" fill="#082148"/>
<path d="M136.505 14.6827C136.365 15.7568 136.387 16.8455 136.569 17.9134C136.569 18.1397 136.569 18.3659 136.671 18.5545C136.689 18.7239 136.719 18.8919 136.761 19.0574C136.761 19.3465 136.85 19.5099 136.85 19.5099C137.208 19.3631 137.54 19.1593 137.832 18.9065C138.147 18.6491 138.418 18.3435 138.635 18.0014C138.922 17.5682 139.125 17.0867 139.235 16.5809C139.439 15.416 139.369 14.2204 139.031 13.0862C138.921 12.6595 138.784 12.2397 138.623 11.8291C138.495 11.5149 138.406 11.3389 138.406 11.3389L138.151 11.54C137.942 11.7336 137.75 11.9438 137.577 12.1685C137.329 12.4872 137.119 12.8331 136.952 13.1994C136.735 13.6714 136.585 14.1705 136.505 14.6827Z" fill="#082148"/>
<path d="M138.776 22.9295C138.318 24.0314 137.997 25.1837 137.819 26.3613C137.819 26.6127 137.743 26.8516 137.704 27.0653C137.666 27.279 137.704 27.4675 137.615 27.6309C137.526 27.7943 137.615 28.1338 137.615 28.1338H137.96C138.265 28.0805 138.564 27.9963 138.852 27.8824C139.268 27.716 139.656 27.487 140 27.2035C140.449 26.8288 140.824 26.3774 141.11 25.871C141.7 24.6652 141.989 23.3376 141.952 21.9992C141.952 21.7101 141.952 21.4336 141.952 21.1821C141.952 20.9307 141.952 20.717 141.952 20.5284C141.952 20.3399 141.862 19.9502 141.862 19.9502C141.467 20.1199 141.097 20.3442 140.766 20.6164C140.405 20.8864 140.08 21.1988 139.796 21.5467C139.4 21.9646 139.057 22.429 138.776 22.9295Z" fill="#082148"/>
<path d="M138.419 31.6156C137.559 32.5964 136.81 33.6671 136.187 34.8086L135.995 35.1606C135.919 35.2737 135.868 35.3868 135.804 35.4874C135.74 35.588 135.6 35.8771 135.523 36.0405C135.447 36.2039 135.268 36.5308 135.268 36.5308L135.651 36.6188C135.982 36.6552 136.315 36.6552 136.646 36.6188C137.781 36.5689 138.861 36.1234 139.694 35.3617C140.767 34.313 141.556 33.0166 141.99 31.5905C142.105 31.2762 142.181 30.9745 142.258 30.7105C142.334 30.4465 142.385 30.1951 142.424 29.994C142.5 29.5791 142.526 29.3403 142.526 29.3403C142.398 29.3286 142.27 29.3286 142.143 29.3403C141.807 29.3993 141.478 29.4919 141.161 29.6169C140.714 29.7961 140.287 30.0194 139.885 30.2831C139.64 30.4385 139.405 30.6107 139.184 30.7985C138.907 31.0503 138.651 31.3235 138.419 31.6156Z" fill="#082148"/>
<path d="M135.268 39.6609C135.102 39.7489 134.949 39.8495 134.796 39.9501C134.632 40.0388 134.474 40.1396 134.324 40.2518C134.006 40.4529 133.712 40.6792 133.419 40.8929L133.011 41.2323L132.807 41.3957L132.603 41.5591L131.863 42.2003C131.391 42.6025 131.034 42.9796 130.74 43.231L130.32 43.6459L130.664 43.8596C130.985 44.0266 131.323 44.1614 131.672 44.2618C132.18 44.4133 132.71 44.4813 133.24 44.463C133.936 44.4392 134.621 44.2812 135.256 43.9979C136.703 43.2834 137.951 42.2303 138.891 40.9306C139.107 40.6415 139.286 40.3523 139.464 40.1009C139.643 39.8495 139.771 39.6107 139.873 39.4095C139.975 39.2084 140.204 38.781 140.204 38.781C140.071 38.7424 139.934 38.7171 139.796 38.7056C139.427 38.6704 139.055 38.6704 138.686 38.7056L137.947 38.781C137.663 38.8241 137.382 38.8828 137.105 38.957C136.801 39.0388 136.503 39.1395 136.212 39.2587C135.888 39.3705 135.573 39.5049 135.268 39.6609Z" fill="#082148"/>
<path d="M129.682 46.4368C128.889 46.587 128.108 46.7971 127.348 47.0653C126.991 47.2036 126.621 47.3167 126.276 47.455L125.766 47.6562L125.282 47.8321C124.669 48.0835 124.134 48.2847 123.764 48.4481L123.33 48.6367H123.164C123.247 48.7588 123.336 48.8763 123.432 48.9887C123.69 49.2795 123.976 49.5447 124.287 49.7806C124.743 50.1179 125.251 50.381 125.792 50.56C126.129 50.6646 126.475 50.7403 126.825 50.7863C127.249 50.8283 127.676 50.8283 128.1 50.7863C128.531 50.7445 128.957 50.6688 129.376 50.56C129.809 50.4323 130.235 50.2812 130.651 50.1074C131.072 49.9314 131.467 49.7177 131.927 49.5166C132.386 49.3155 132.666 49.0641 132.998 48.8378L133.24 48.6744L133.47 48.4984L133.891 48.1716C134.146 47.9579 134.375 47.7693 134.554 47.5933L135.115 47.0402C134.99 46.957 134.858 46.8854 134.72 46.8265C134.358 46.6648 133.982 46.5345 133.597 46.4368C133.337 46.3697 133.073 46.3193 132.807 46.2859C132.503 46.2355 132.196 46.2061 131.888 46.1979C131.544 46.173 131.199 46.173 130.855 46.1979C130.458 46.2455 130.066 46.3254 129.682 46.4368Z" fill="#082148"/>
<path d="M127.093 5.35503C127.938 6.03247 128.858 6.61436 129.835 7.0898C130.026 7.19037 130.218 7.26581 130.383 7.34124C130.528 7.41673 130.677 7.48389 130.83 7.54237L131.238 7.73093L131.161 7.31611C131.161 7.17783 131.098 7.0144 131.047 6.83841L130.843 6.235C130.418 5.11816 129.717 4.12406 128.802 3.34373C128.671 3.23619 128.535 3.13546 128.394 3.04201L127.973 2.76545L127.552 2.53918C127.412 2.46376 127.259 2.41348 127.118 2.35063L126.71 2.1872L126.302 2.07407L125.919 1.97352L125.549 1.91064H124.912H124.427H124.006L124.248 2.26263L124.542 2.63977C124.644 2.77805 124.771 2.94146 124.912 3.10488C125.557 3.92787 126.288 4.68201 127.093 5.35503Z" fill="#082148"/>
<path d="M122.004 51.0243C121.582 50.942 121.156 50.8832 120.728 50.8483C120.295 50.8483 119.861 50.7603 119.453 50.7478C119.045 50.7352 118.611 50.7478 118.177 50.7478H117.042C116.328 50.7478 115.767 50.7478 115.282 50.7478H114.581C114.608 50.9052 114.646 51.0606 114.695 51.2129C114.804 51.6038 114.963 51.9797 115.167 52.3317C115.305 52.5785 115.463 52.814 115.639 53.0357C115.728 53.1614 115.843 53.2745 115.945 53.4002L116.315 53.7396C116.6 53.9285 116.898 54.0966 117.208 54.2425C117.614 54.4564 118.042 54.6291 118.483 54.7579C118.957 54.9054 119.444 55.0064 119.937 55.0595C120.445 55.1249 120.957 55.1459 121.468 55.1224C121.973 55.1144 122.476 55.0681 122.973 54.9841C123.442 54.917 123.907 54.8204 124.363 54.695L124.988 54.519L125.549 54.3305C125.907 54.2047 126.225 54.0916 126.48 53.9785C126.991 53.7522 127.284 53.5888 127.284 53.5888C127.18 53.4694 127.07 53.356 126.952 53.2493C126.64 52.961 126.303 52.7003 125.945 52.47C125.418 52.1391 124.863 51.8531 124.287 51.6152C123.549 51.3396 122.784 51.1415 122.004 51.0243Z" fill="#082148"/>
<path d="M104.443 29.2468V27.0972L112.683 16.3253H116.003L107.882 27.0972L106.33 26.6195H119.586V29.2468H104.443ZM113.615 33.0444V29.2468L113.71 26.6195V23.2518H116.624V33.0444H113.615Z" fill="#082148"/>
<path d="M234.936 10.294H243.877C246.15 10.294 247.811 10.9044 248.886 11.9544C249.936 12.8578 250.401 14.0787 250.401 15.2752C250.401 15.7391 250.401 16.3251 250.254 16.7891C249.961 17.546 249.497 18.3029 248.886 18.9134C248.593 19.2064 248.275 19.3773 247.982 19.5238C249.032 19.8168 249.961 20.4273 250.718 21.1842C251.329 21.9412 251.622 22.8446 251.622 24.212C251.622 24.969 251.476 25.8724 251.158 26.4829C250.865 27.0933 250.254 27.7037 249.643 28.1433C248.886 28.6072 248.129 28.9002 247.371 29.1932C246.467 29.4862 245.392 29.4862 244.342 29.4862H235.082V10.2451H234.936V10.294ZM243.12 18.1564C243.877 18.1564 244.635 18.0099 245.392 17.6925C246.003 17.3995 246.296 16.7891 246.296 16.1786C246.296 15.5682 246.003 14.9577 245.539 14.6647C244.928 14.2008 244.171 14.0543 243.413 14.2008H239.162V18.2785H243.096V18.1564H243.12ZM244.171 25.8968C244.928 25.8968 245.685 25.7503 246.443 25.4329C247.054 25.1399 247.347 24.5294 247.2 23.7725C247.2 23.1621 246.907 22.5516 246.443 22.2586C245.979 21.9656 245.075 21.6482 244.024 21.6482H239.016V25.8968H244.171Z" fill="#F1BC10"/>
<path d="M256.902 10.2939H261.153V29.6815H256.902V10.2939Z" fill="#F1BC10"/>
<path d="M267.67 10.2939H271.604L280.692 22.2586V10.2939H284.919V29.6815H281.303L271.75 17.3995V29.6815H267.67V10.2939Z" fill="#F1BC10"/>
<path d="M297.821 10.1479H301.755L310.086 29.6821H305.688L303.88 25.2869H295.696L293.888 29.6821H289.49L297.821 10.1479ZM302.366 21.6487L299.8 15.3001L297.235 21.6487H302.366Z" fill="#F1BC10"/>
<path d="M314.629 10.2939H318.562L327.651 22.2586V10.2939H331.902V29.6815H328.262L318.856 17.3995V29.6815H314.629V10.2939Z" fill="#F1BC10"/>
<path d="M347.346 29.9746C345.978 29.9746 344.609 29.6816 343.412 29.2177C340.994 28.1677 339.161 26.3364 338.111 23.919C337.647 22.6981 337.353 21.3552 337.353 19.9878C337.353 17.4239 338.404 14.8357 340.236 12.8823C341.14 11.9788 342.215 11.2219 343.412 10.7579C344.78 10.1475 346.149 10.001 347.492 10.001C348.25 10.001 349.154 10.001 349.911 10.1475C350.668 10.294 351.279 10.4405 351.89 10.7579C352.501 11.0509 353.112 11.3684 353.551 11.6614C354.016 11.9544 354.602 12.4183 355.066 12.8823L352.501 16.0566C351.743 15.4461 350.986 14.8357 350.229 14.3962C349.471 13.9566 348.567 13.7857 347.663 13.7857C346.906 13.7857 346.149 13.9322 345.391 14.2496C344.634 14.5427 344.023 15.0066 343.583 15.617C343.144 16.2275 342.679 16.8379 342.362 17.5949C342.069 18.3518 341.898 19.1088 341.898 19.8657C341.898 20.6226 342.044 21.5261 342.362 22.2831C342.679 23.04 342.973 23.6504 343.583 24.2609C344.634 25.4818 346.149 26.0678 347.663 26.0678C348.567 26.0678 349.642 25.9213 350.546 25.4573C351.304 24.9934 352.208 24.4074 352.818 23.7969L355.53 26.5073C355.066 26.9712 354.48 27.5573 354.016 28.0212C353.405 28.4851 352.794 28.7781 352.208 29.0712C351.597 29.3642 350.839 29.6816 350.082 29.8281C349.007 29.9746 348.103 29.9746 347.346 29.9746Z" fill="#F1BC10"/>
<path d="M360.391 10.2939H374.928V14.0787H364.471V18.0099H373.706V21.7947H364.471V25.8968H375.074V29.6815H360.391V10.2939Z" fill="#F1BC10"/>
<path d="M240.385 48.7515C239.334 48.7515 238.259 48.605 237.355 48.141C236.451 47.848 235.547 47.2376 234.619 46.4806L236.134 44.8203C236.744 45.4307 237.355 45.7237 238.113 46.1876C238.87 46.4807 239.627 46.6516 240.385 46.6516C240.996 46.6516 241.606 46.5051 242.193 46.1876C242.657 45.8946 242.803 45.4307 242.803 44.9668C242.803 44.8203 242.803 44.5028 242.657 44.3563C242.51 44.2098 242.364 43.8924 242.193 43.7459C241.9 43.5994 241.582 43.4529 241.289 43.282C240.825 43.1355 240.238 42.9889 239.774 42.818C239.163 42.6715 238.406 42.525 237.795 42.2076C237.331 42.0611 236.744 41.7437 236.427 41.4506C236.134 41.1576 235.816 40.8402 235.523 40.4007C235.23 39.7903 235.23 39.1798 235.23 38.7403C235.23 38.1299 235.376 37.6903 235.523 37.0799C235.67 36.616 236.134 36.1765 236.427 35.859C236.891 35.566 237.331 35.2486 237.942 35.1021C238.552 34.9556 239.163 34.8091 239.75 34.8091C240.654 34.8091 241.557 34.9556 242.486 35.273C243.243 35.566 244.001 36.03 244.758 36.4939L243.536 38.3008C242.926 37.8368 242.315 37.5438 241.728 37.2508C241.118 36.9578 240.507 36.9578 239.921 36.9578C239.31 36.9578 238.699 37.1043 238.259 37.4218C237.966 37.7148 237.648 38.1787 237.648 38.6426C237.648 38.9356 237.648 39.1066 237.795 39.3996C237.942 39.5461 238.088 39.8635 238.259 40.01C238.552 40.1565 238.87 40.303 239.31 40.4739C239.774 40.6205 240.214 40.767 240.971 40.9379C241.582 41.0844 242.193 41.2309 242.95 41.5483C243.414 41.6948 243.854 42.0122 244.318 42.3053C244.611 42.5983 244.929 43.0622 245.076 43.3552C245.222 43.8191 245.369 44.2587 245.369 44.8691C245.369 45.4795 245.222 46.09 245.076 46.5295C244.782 46.9934 244.465 47.4329 244.025 47.8969C243.561 48.1899 243.121 48.5073 242.51 48.6538C241.753 48.605 240.996 48.7515 240.385 48.7515Z" fill="#F1BC10"/>
<path d="M247.957 34.9805H250.547L254.627 41.329L258.878 34.9805H261.443V48.6055H259.024V38.7652L254.773 45.1138H254.627L250.4 38.7652V48.6055H247.957V34.9805Z" fill="#F1BC10"/>
<path d="M269.628 34.8335H271.9L277.812 48.4586H275.247L273.879 45.1378H267.527L266.159 48.4586H263.74L269.628 34.8335ZM273.121 43.16L270.703 37.7148L268.431 43.16H273.121Z" fill="#F1BC10"/>
<path d="M280.232 34.9805H286.291C287.049 34.9805 287.806 35.127 288.563 35.2735C289.174 35.42 289.785 35.8839 290.225 36.3234C290.518 36.6164 290.836 37.0804 291.129 37.6908C291.275 38.1547 291.422 38.7408 291.422 39.3512C291.422 39.8151 291.275 40.4012 291.129 40.8651C290.982 41.329 290.665 41.622 290.518 42.086C290.225 42.379 289.907 42.6964 289.467 42.9894C289.003 43.2824 288.563 43.4534 288.099 43.5999L291.74 48.752H288.857L285.534 44.0638H282.505V48.752H280.086L280.232 34.9805ZM286.145 41.6465C286.902 41.6465 287.66 41.5 288.124 41.036C288.588 40.5721 288.881 39.9861 288.881 39.3756C288.881 38.7652 288.588 38.1547 288.124 37.7152C287.513 37.2513 286.756 37.1048 285.998 37.1048H282.505V41.6465H286.145Z" fill="#F1BC10"/>
<path d="M297.648 37.1048H293.25V34.9805H304.318V37.1048H299.92V48.6055H297.501L297.648 37.1048Z" fill="#F1BC10"/>
<path d="M319.025 48.7511C318.122 48.7511 317.218 48.6046 316.289 48.1406C314.628 47.3837 313.26 46.1628 312.649 44.5024C312.356 43.5989 312.038 42.6955 312.185 41.7676C312.185 40.8642 312.331 39.9607 312.649 39.0329C313.26 37.3725 314.628 36.0051 316.289 35.2481C317.193 34.9551 318.097 34.6377 319.172 34.6377C319.783 34.6377 320.394 34.6377 320.833 34.7842C321.298 34.9307 321.737 35.0772 322.202 35.2481C322.666 35.3946 322.959 35.7121 323.423 35.8586C323.716 36.1516 324.181 36.469 324.474 36.762L322.959 38.5689C322.495 38.105 321.908 37.6655 321.298 37.348C320.687 37.055 319.929 36.8841 319.172 36.8841C318.561 36.8841 317.95 37.0306 317.364 37.1771C316.753 37.4701 316.314 37.7876 315.849 38.2271C315.385 38.691 315.092 39.1305 314.945 39.741C314.799 40.3514 314.652 40.9619 314.652 41.5479C314.652 42.1583 314.799 42.7687 314.945 43.3548C315.092 43.9408 315.41 44.4047 315.849 44.8687C316.314 45.3326 316.753 45.6256 317.364 45.9186C317.975 46.2116 318.586 46.3826 319.172 46.2116C319.929 46.2116 320.687 46.0651 321.298 45.7477C321.908 45.4547 322.519 44.9908 323.106 44.3803L324.62 45.8942C324.327 46.1872 323.863 46.6511 323.57 46.9442C323.106 47.2372 322.812 47.5546 322.348 47.7011C321.884 47.8476 321.444 48.165 320.833 48.165C320.223 48.7511 319.612 48.7511 319.025 48.7511Z" fill="#F1BC10"/>
<path d="M327.042 34.9805H329.314V40.5721H335.837V34.9805H338.256V48.6055H335.837V42.8429H329.314V48.6055H327.042V34.9805Z" fill="#F1BC10"/>
<path d="M346.587 34.8335H348.859L354.772 48.4586H352.207L350.838 45.1378H344.486L343.118 48.4586H340.699L346.587 34.8335ZM349.934 43.16L347.662 37.7148L345.39 43.16H349.934Z" fill="#F1BC10"/>
<path d="M357.188 34.9805H359.631V48.6055H357.188V34.9805Z" fill="#F1BC10"/>
<path d="M363.247 34.9805H365.373L372.653 44.3568V34.9805H375.072V48.6055H373.093L365.69 38.9117V48.6055H363.247V34.9805Z" fill="#F1BC10"/>
<path d="M208.28 47.7017V53.6108L203.125 56.6386L198.117 53.6108V47.7017L203.125 50.7295L208.28 47.7017ZM180.697 27.2642L185.706 30.292V40.4253L194.33 45.5774V51.4865L180.697 43.4531V27.2642ZM225.553 27.2642V43.4775L211.774 51.5109V45.6018L220.398 40.4497V30.3164L225.553 27.2642ZM211.75 19.2308L216.905 22.2585V28.1676L208.28 33.3197V43.5996L203.272 46.6274L198.288 43.5996V33.2953L189.346 28.1432V22.2341L194.501 19.2063L203.125 24.3585L211.75 19.2308ZM189.346 32.3919L194.355 35.4197V41.3287L189.346 38.3009V32.3919ZM216.905 32.3919V38.3009L211.896 41.3287V35.4197L216.905 32.3919ZM185.706 14.0786L190.861 17.1064L185.706 20.1342V26.0433L180.697 23.0155V17.1064L185.706 14.0786ZM220.545 14.0786L225.7 17.1064V23.0155L220.545 26.0433V20.1342L215.537 17.1064L220.545 14.0786ZM203.125 14.0786L208.28 17.1064L203.125 20.1342L198.117 17.1064L203.125 14.0786ZM203.125 3.94531L216.905 11.9787L211.896 15.0065L203.272 9.85438L194.477 15.0065L189.468 11.9787L203.125 3.94531Z" fill="#F1BC10"/>
<path d="M400.184 11.2258H403.643V26.1699H400.184V11.2258ZM393.395 26.1699H389.937V11.2258H393.395V26.1699ZM400.44 20.0428H393.139V17.1181H400.44V20.0428ZM405.214 26.1699L411.875 11.2258H415.291L421.973 26.1699H418.344L412.878 12.9764H414.245L408.758 26.1699H405.214ZM408.545 22.9676L409.463 20.3417H417.148L418.088 22.9676H408.545ZM430.467 26.4261C429.314 26.4261 428.239 26.2411 427.243 25.871C426.261 25.4868 425.407 24.9459 424.681 24.2485C423.955 23.5511 423.386 22.7328 422.973 21.7934C422.575 20.8541 422.376 19.8222 422.376 18.6979C422.376 17.5735 422.575 16.5416 422.973 15.6023C423.386 14.663 423.955 13.8446 424.681 13.1472C425.421 12.4498 426.282 11.9161 427.265 11.546C428.247 11.1618 429.321 10.9696 430.488 10.9696C431.783 10.9696 432.95 11.1973 433.989 11.6528C435.043 12.094 435.925 12.7487 436.637 13.6169L434.416 15.6663C433.904 15.0828 433.335 14.6487 432.708 14.3641C432.082 14.0652 431.399 13.9158 430.659 13.9158C429.962 13.9158 429.321 14.0296 428.738 14.2573C428.154 14.4851 427.649 14.8124 427.222 15.2394C426.795 15.6663 426.46 16.1716 426.218 16.7551C425.991 17.3387 425.877 17.9862 425.877 18.6979C425.877 19.4095 425.991 20.0571 426.218 20.6406C426.46 21.2241 426.795 21.7294 427.222 22.1564C427.649 22.5833 428.154 22.9107 428.738 23.1384C429.321 23.3661 429.962 23.48 430.659 23.48C431.399 23.48 432.082 23.3377 432.708 23.053C433.335 22.7541 433.904 22.3058 434.416 21.708L436.637 23.7575C435.925 24.6257 435.043 25.2875 433.989 25.7429C432.95 26.1984 431.776 26.4261 430.467 26.4261ZM442.068 22.7541L441.876 18.7619L449.027 11.2258H452.87L446.423 18.1641L444.501 20.2136L442.068 22.7541ZM438.972 26.1699V11.2258H442.409V26.1699H438.972ZM449.198 26.1699L443.882 19.6586L446.145 17.2035L453.233 26.1699H449.198ZM452.123 26.1699L458.784 11.2258H462.2L468.882 26.1699H465.253L459.787 12.9764H461.154L455.667 26.1699H452.123ZM455.454 22.9676L456.372 20.3417H464.057L464.996 22.9676H455.454ZM472.777 26.1699V14.0438H467.995V11.2258H481.018V14.0438H476.236V26.1699H472.777ZM493.126 11.2258H496.585V26.1699H493.126V11.2258ZM486.337 26.1699H482.879V11.2258H486.337V26.1699ZM493.382 20.0428H486.081V17.1181H493.382V20.0428ZM507.379 26.4261C506.198 26.4261 505.102 26.234 504.091 25.8497C503.095 25.4654 502.227 24.9246 501.487 24.2272C500.761 23.5298 500.192 22.7114 499.779 21.7721C499.38 20.8327 499.181 19.808 499.181 18.6979C499.181 17.5877 499.38 16.563 499.779 15.6237C500.192 14.6843 500.768 13.8659 501.508 13.1685C502.248 12.4712 503.116 11.9303 504.113 11.546C505.109 11.1618 506.191 10.9696 507.358 10.9696C508.539 10.9696 509.621 11.1618 510.603 11.546C511.599 11.9303 512.46 12.4712 513.186 13.1685C513.926 13.8659 514.502 14.6843 514.915 15.6237C515.328 16.5488 515.534 17.5735 515.534 18.6979C515.534 19.808 515.328 20.8399 514.915 21.7934C514.502 22.7328 513.926 23.5511 513.186 24.2485C512.46 24.9317 511.599 25.4654 510.603 25.8497C509.621 26.234 508.546 26.4261 507.379 26.4261ZM507.358 23.48C508.027 23.48 508.639 23.3661 509.194 23.1384C509.763 22.9107 510.261 22.5833 510.688 22.1564C511.115 21.7294 511.442 21.2241 511.67 20.6406C511.912 20.0571 512.033 19.4095 512.033 18.6979C512.033 17.9862 511.912 17.3387 511.67 16.7551C511.442 16.1716 511.115 15.6663 510.688 15.2394C510.275 14.8124 509.784 14.4851 509.215 14.2573C508.646 14.0296 508.027 13.9158 507.358 13.9158C506.689 13.9158 506.07 14.0296 505.5 14.2573C504.945 14.4851 504.454 14.8124 504.027 15.2394C503.6 15.6663 503.266 16.1716 503.024 16.7551C502.796 17.3387 502.682 17.9862 502.682 18.6979C502.682 19.3953 502.796 20.0428 503.024 20.6406C503.266 21.2241 503.593 21.7294 504.006 22.1564C504.433 22.5833 504.931 22.9107 505.5 23.1384C506.07 23.3661 506.689 23.48 507.358 23.48ZM518.133 26.1699V11.2258H520.994L529.811 21.9856H528.423V11.2258H531.839V26.1699H529L520.162 15.4102H521.549V26.1699H518.133ZM393.523 49.1699L388.635 34.2258H392.221L396.469 47.462H394.676L399.117 34.2258H402.319L406.589 47.462H404.86L409.215 34.2258H412.524L407.635 49.1699H403.92L400.141 37.5562H401.124L397.238 49.1699H393.523ZM414.454 49.1699V34.2258H417.913V49.1699H414.454ZM421.46 49.1699V34.2258H424.32L433.137 44.9856H431.75V34.2258H435.165V49.1699H432.326L423.488 38.4102H424.875V49.1699H421.46ZM438.701 49.1699V34.2258H441.562L450.379 44.9856H448.991V34.2258H452.407V49.1699H449.568L440.729 38.4102H442.117V49.1699H438.701ZM459.124 40.2462H466.318V42.9361H459.124V40.2462ZM459.38 46.3946H467.514V49.1699H455.943V34.2258H467.236V37.0011H459.38V46.3946ZM470.266 49.1699V34.2258H476.734C478.072 34.2258 479.225 34.4464 480.193 34.8876C481.161 35.3146 481.908 35.9337 482.434 36.745C482.961 37.5562 483.224 38.524 483.224 39.6484C483.224 40.7585 482.961 41.7192 482.434 42.5305C481.908 43.3275 481.161 43.9395 480.193 44.3665C479.225 44.7934 478.072 45.0069 476.734 45.0069H472.187L473.724 43.4912V49.1699H470.266ZM479.766 49.1699L476.03 43.7473H479.723L483.502 49.1699H479.766ZM473.724 43.8754L472.187 42.2529H476.542C477.609 42.2529 478.407 42.0252 478.933 41.5698C479.46 41.1001 479.723 40.4596 479.723 39.6484C479.723 38.8229 479.46 38.1824 478.933 37.727C478.407 37.2716 477.609 37.0438 476.542 37.0438H472.187L473.724 35.4V43.8754ZM490.875 49.4261C489.679 49.4261 488.533 49.2695 487.437 48.9564C486.342 48.6291 485.459 48.2092 484.79 47.6969L485.964 45.0923C486.605 45.5478 487.359 45.9249 488.227 46.2238C489.11 46.5084 489.999 46.6508 490.896 46.6508C491.579 46.6508 492.127 46.5867 492.54 46.4586C492.967 46.3163 493.28 46.1242 493.479 45.8822C493.678 45.6403 493.778 45.3627 493.778 45.0496C493.778 44.6511 493.621 44.338 493.308 44.1103C492.995 43.8683 492.582 43.6762 492.07 43.5339C491.558 43.3773 490.988 43.235 490.362 43.1069C489.75 42.9646 489.131 42.7938 488.505 42.5945C487.893 42.3953 487.331 42.1391 486.818 41.826C486.306 41.5128 485.886 41.1001 485.559 40.5877C485.246 40.0754 485.089 39.4207 485.089 38.6237C485.089 37.7697 485.317 36.994 485.772 36.2966C486.242 35.585 486.939 35.0228 487.864 34.6101C488.804 34.1831 489.978 33.9696 491.387 33.9696C492.326 33.9696 493.251 34.0835 494.162 34.3112C495.073 34.5247 495.877 34.852 496.575 35.2932L495.507 37.9191C494.81 37.5206 494.112 37.2289 493.415 37.0438C492.718 36.8446 492.035 36.745 491.366 36.745C490.697 36.745 490.149 36.8232 489.722 36.9798C489.295 37.1364 488.989 37.3427 488.804 37.5989C488.619 37.8409 488.526 38.1255 488.526 38.4529C488.526 38.8371 488.683 39.1503 488.996 39.3922C489.309 39.6199 489.722 39.8049 490.234 39.9473C490.746 40.0896 491.309 40.2319 491.921 40.3742C492.547 40.5166 493.166 40.6802 493.778 40.8653C494.404 41.0503 494.974 41.2994 495.486 41.6125C495.998 41.9256 496.411 42.3383 496.724 42.8507C497.051 43.3631 497.215 44.0106 497.215 44.7934C497.215 45.6331 496.98 46.4017 496.511 47.0991C496.041 47.7965 495.336 48.3587 494.397 48.7856C493.472 49.2126 492.298 49.4261 490.875 49.4261Z" fill="#082148"/>
</svg>
