<svg width="570" height="59" viewBox="0 0 570 59" fill="none" xmlns="http://www.w3.org/2000/svg">
<g clip-path="url(#clip0_611_7476)">
<path d="M89.4786 28.0375C89.4786 37.2255 96.2986 44.2349 105.676 44.2349C115.148 44.2349 121.968 37.1308 121.968 28.0375C121.968 18.8496 115.148 11.8402 105.676 11.8402C96.2038 11.7455 89.4786 18.8496 89.4786 28.0375ZM95.6355 28.0375C95.6355 22.2595 99.8033 17.9024 105.676 17.9024C111.549 17.9024 115.716 22.2595 115.716 28.0375C115.716 33.8156 111.549 38.1727 105.676 38.1727C99.8033 38.1727 95.6355 33.7208 95.6355 28.0375ZM147.448 43.7613H153.7L143.47 12.2191H137.123L126.704 43.7613H132.861L134.282 39.3094H145.933L147.448 43.7613ZM136.271 33.342L140.155 21.4071L144.038 33.342H136.271ZM176.149 21.4071H182.306C182.306 15.6291 177.475 11.7455 171.034 11.7455C164.403 11.7455 159.857 15.9132 159.857 21.6912C159.857 25.6695 162.13 28.89 166.203 30.0267C169.045 30.7845 172.36 30.595 174.349 31.3528C175.58 31.8264 176.622 32.7736 176.622 34.2892C176.622 36.5625 174.633 38.3622 171.318 38.3622C168.097 38.3622 165.635 36.6572 165.635 34.1944H159.478C159.478 40.1619 164.498 44.2349 171.223 44.2349C178.138 44.2349 182.684 39.8777 182.684 34.005C182.684 29.7425 180.222 26.7114 176.243 25.4801C173.212 24.5328 170.181 25.0065 168.097 24.2487C166.771 23.7751 165.919 22.8279 165.919 21.4071C165.919 19.3232 167.813 17.6182 170.844 17.6182C174.065 17.6182 176.149 19.1337 176.149 21.4071ZM191.399 43.7613H197.556V12.2191H191.399V43.7613ZM222.846 21.4071H229.003C229.003 15.6291 224.172 11.7455 217.731 11.7455C211.101 11.7455 206.554 15.9132 206.554 21.6912C206.554 25.6695 208.828 28.89 212.901 30.0267C215.742 30.7845 219.057 30.595 221.047 31.3528C222.278 31.8264 223.32 32.7736 223.32 34.2892C223.32 36.5625 221.331 38.3622 218.015 38.3622C214.795 38.3622 212.332 36.6572 212.332 34.1944H206.175C206.175 40.1619 211.196 44.2349 217.921 44.2349C224.835 44.2349 229.382 39.8777 229.382 34.005C229.382 29.7425 226.919 26.7114 222.941 25.4801C219.91 24.5328 216.879 25.0065 214.795 24.2487C213.469 23.7751 212.616 22.8279 212.616 21.4071C212.616 19.3232 214.511 17.6182 217.542 17.6182C220.668 17.6182 222.752 19.1337 222.846 21.4071ZM254.01 43.7613H260.166V30.9739H270.302V24.9117H260.166V18.2812H278.448V12.2191H254.01V43.7613ZM284.131 28.0375C284.131 37.2255 290.951 44.2349 300.328 44.2349C309.706 44.2349 316.62 37.1308 316.62 28.0375C316.62 18.8496 309.8 11.8402 300.328 11.8402C290.856 11.8402 284.131 18.8496 284.131 28.0375ZM290.288 28.0375C290.288 22.2595 294.456 17.9024 300.328 17.9024C306.201 17.9024 310.369 22.2595 310.369 28.0375C310.369 33.8156 306.201 38.1727 300.328 38.1727C294.456 38.1727 290.288 33.7208 290.288 28.0375ZM350.341 12.2191H344.184V31.6369C344.184 35.3311 341.532 38.1727 337.743 38.1727C333.954 38.1727 331.302 35.3311 331.302 31.6369V12.2191H325.145V31.8264C325.145 38.7411 330.45 44.1402 337.838 44.1402C344.942 44.1402 350.436 38.8358 350.436 31.8264V12.2191H350.341ZM379.515 12.2191V32.7736L366.349 12.2191H360.192V43.7613H366.349V23.2068L379.515 43.7613H385.672V12.2191H379.515ZM406.227 12.2191H395.713V43.7613H406.227C415.415 43.7613 421.951 36.9414 421.951 28.0375C421.951 19.1337 415.415 12.2191 406.227 12.2191ZM401.87 18.2812H406.227C411.815 18.2812 415.888 22.5437 415.888 28.0375C415.888 33.5314 411.91 37.6991 406.227 37.6991H401.87V18.2812ZM447.525 43.7613H453.777L443.547 12.2191H437.201L426.876 43.7613H433.033L434.454 39.3094H446.104L447.525 43.7613ZM436.348 33.342L440.232 21.4071L444.115 33.342H436.348ZM464.765 43.7613H470.921V18.2812H480.109V12.2191H455.671V18.2812H464.859V43.7613H464.765ZM487.971 43.7613H494.128V12.2191H487.971V43.7613ZM502.843 28.0375C502.843 37.2255 509.663 44.2349 519.04 44.2349C528.512 44.2349 535.332 37.1308 535.332 28.0375C535.332 18.8496 528.512 11.8402 519.04 11.8402C509.663 11.7455 502.843 18.8496 502.843 28.0375ZM508.999 28.0375C508.999 22.2595 513.167 17.9024 519.04 17.9024C524.913 17.9024 529.08 22.2595 529.08 28.0375C529.08 33.8156 524.913 38.1727 519.04 38.1727C513.167 38.1727 508.999 33.7208 508.999 28.0375ZM563.369 12.2191V32.7736L550.203 12.2191H544.046V43.7613H550.203V23.2068L563.369 43.7613H569.526V12.2191H563.369ZM52.9162 12.0296C48.559 6.44109 42.118 2.93639 35.1086 2.93639C21.4687 2.93639 11.4282 15.6291 11.4282 29.4584C11.4282 39.0252 17.7746 46.224 24.8787 46.224C25.5417 46.224 26.2048 46.1293 26.8678 46.0346C22.1318 42.5299 19.1007 36.2783 19.1007 29.4584C19.1007 18.5654 26.4889 10.0405 35.1086 10.0405C44.5807 10.0405 51.1165 19.4179 51.1165 29.4584C51.1165 36.8466 48.4643 44.1402 43.8229 49.5393C39.7499 54.2753 34.5403 57.2117 28.857 58.1589C28.857 58.1589 29.3306 58.1589 29.9936 58.1589C45.9068 58.1589 58.7889 45.2768 58.7889 29.3636C58.6942 22.8279 56.5156 16.7657 52.9162 12.0296ZM48.559 29.3636C48.559 19.7968 42.2127 12.598 35.1086 12.598C34.4455 12.598 33.7825 12.6927 33.1194 12.7874C37.8555 16.2921 40.8866 22.5437 40.8866 29.3636C40.8866 40.2566 33.4983 48.7815 24.8787 48.7815C15.4065 48.7815 8.87076 39.4041 8.87076 29.3636C8.87076 21.9754 11.523 14.6818 16.1643 9.28271C20.2373 4.54664 25.447 1.6103 31.1303 0.663086C31.1303 0.663086 30.6567 0.663086 29.9936 0.663086C14.0804 0.663086 1.19834 13.5452 1.19834 29.4584C1.19834 35.9941 3.37693 42.0563 7.07106 46.8871C11.4282 52.4757 17.8693 55.9803 24.8787 55.9803C38.5185 55.8856 48.559 43.0982 48.559 29.3636Z" fill="#0C84F4"/>
</g>
<defs>
<clipPath id="clip0_611_7476">
<rect width="569.275" height="58.7272" fill="white" transform="translate(0.724731)"/>
</clipPath>
</defs>
</svg>
