<svg width="23" height="23" viewBox="0 0 23 23" fill="none" xmlns="http://www.w3.org/2000/svg">
<path d="M11.5 0.139648C5.31479 0.139648 0.299988 5.15445 0.299988 11.3396C0.299988 17.5248 5.31479 22.5396 11.5 22.5396C17.6852 22.5396 22.7 17.5248 22.7 11.3396C22.7 5.15445 17.6852 0.139648 11.5 0.139648ZM7.29625 5.18245C8.08212 5.18245 8.60572 5.70605 8.60572 6.40418C8.60572 7.10231 8.08212 7.62591 7.20945 7.62591C6.42358 7.62684 5.89999 7.10231 5.89999 6.40418C5.89999 5.70605 6.42359 5.18245 7.29625 5.18245ZM8.69998 16.0063H5.89999V8.53964H8.69998V16.0063ZM18.0333 16.0063H15.3976V11.9258C15.3976 10.7974 14.6948 10.537 14.4316 10.537C14.1684 10.537 13.2892 10.7106 13.2892 11.9258C13.2892 12.0994 13.2892 16.0063 13.2892 16.0063H10.5667V8.53964H13.2901V9.58124C13.641 8.97364 14.3438 8.53964 15.6617 8.53964C16.9796 8.53964 18.0333 9.58124 18.0333 11.9258V16.0063Z" fill="white"/>
</svg>
