<svg width="23" height="23" viewBox="0 0 23 23" fill="none" xmlns="http://www.w3.org/2000/svg">
<path d="M11.5 0.139648C5.3148 0.139648 0.300003 5.15445 0.300003 11.3396C0.300003 13.4408 0.890187 15.3997 1.89688 17.08L0.400262 22.5396L5.97656 21.0758C7.60739 22.003 9.49006 22.5396 11.5 22.5396C17.6852 22.5396 22.7 17.5248 22.7 11.3396C22.7 5.15445 17.6852 0.139648 11.5 0.139648ZM7.66641 6.11516C7.84841 6.11516 8.03541 6.11405 8.19688 6.12245C8.39661 6.12712 8.614 6.14175 8.82214 6.60188C9.06947 7.14881 9.60802 8.52089 9.67709 8.65995C9.74615 8.79902 9.7951 8.96285 9.69897 9.14485C9.6075 9.33151 9.55993 9.44449 9.42553 9.60969C9.28646 9.77023 9.13408 9.96962 9.00808 10.0909C8.86901 10.23 8.72541 10.3825 8.88594 10.6597C9.04647 10.9369 9.60399 11.8456 10.4281 12.5792C11.4875 13.5256 12.3812 13.8165 12.6594 13.9555C12.9375 14.0946 13.0986 14.0729 13.2591 13.8863C13.4243 13.7043 13.9529 13.0798 14.1396 12.8016C14.3216 12.5235 14.5074 12.5716 14.7594 12.6631C15.0151 12.7546 16.3789 13.4264 16.657 13.5654C16.9352 13.7045 17.1175 13.7733 17.1875 13.8863C17.2594 14.0029 17.2594 14.5583 17.0289 15.2061C16.7984 15.8529 15.6663 16.4783 15.1586 16.5222C14.6462 16.5698 14.168 16.7525 11.8281 15.8313C9.00572 14.7197 7.22578 11.8289 7.08672 11.6423C6.94765 11.4603 5.95651 10.1393 5.95651 8.77664C5.95651 7.40931 6.67341 6.73967 6.92447 6.46153C7.18021 6.1834 7.47974 6.11516 7.66641 6.11516Z" fill="white"/>
</svg>
