<svg width="23" height="24" viewBox="0 0 23 24" fill="none" xmlns="http://www.w3.org/2000/svg">
<path d="M11.5 0.964844C17.7821 0.964844 22.875 6.05774 22.875 12.3398C22.875 18.6219 17.7821 23.7148 11.5 23.7148C5.2179 23.7148 0.125 18.6219 0.125 12.3398C0.125 6.05774 5.2179 0.964844 11.5 0.964844ZM15.4239 16.9767C15.6327 16.3351 16.6136 9.93713 16.7341 8.67606C16.7708 8.29448 16.6498 8.04061 16.414 7.92686C16.1281 7.78984 15.7051 7.85809 15.2134 8.03544C14.5397 8.27845 5.92832 11.9345 5.43092 12.1465C4.95937 12.3471 4.51316 12.5653 4.51316 12.8822C4.51316 13.1051 4.64553 13.2302 5.00953 13.36C5.38801 13.4949 6.34195 13.784 6.90605 13.9396C7.44895 14.0895 8.06578 13.9592 8.4122 13.7441C8.77879 13.5161 13.0144 10.6827 13.3179 10.434C13.6214 10.1858 13.8639 10.5038 13.6157 10.7525C13.3676 11.0007 10.4607 13.8222 10.0771 14.2131C9.61123 14.6872 9.94162 15.1789 10.2544 15.3759C10.6107 15.6009 13.1752 17.3205 13.5615 17.5966C13.9477 17.8727 14.3391 17.9979 14.6979 17.9979C15.0568 17.9974 15.2455 17.5248 15.4239 16.9767Z" fill="white"/>
</svg>
