<svg width="23" height="23" viewBox="0 0 23 23" fill="none" xmlns="http://www.w3.org/2000/svg">
<path d="M11.5 0.139648C5.31479 0.139648 0.299988 5.15445 0.299988 11.3396C0.299988 17.5248 5.31479 22.5396 11.5 22.5396C17.6852 22.5396 22.7 17.5248 22.7 11.3396C22.7 5.15445 17.6852 0.139648 11.5 0.139648ZM17.4369 15.0422L15.6934 15.0664C15.6934 15.0664 15.3173 15.1402 14.8254 14.8004C14.173 14.3524 13.558 13.1867 13.0782 13.3379C12.592 13.4928 12.6069 14.5419 12.6069 14.5419C12.6069 14.5419 12.6106 14.7267 12.4996 14.8471C12.3792 14.9768 12.143 14.9638 12.143 14.9638H11.3618C11.3618 14.9638 9.63892 15.1066 8.12038 13.5236C6.46652 11.7979 5.00492 8.39218 5.00492 8.39218C5.00492 8.39218 4.91905 8.17751 5.01052 8.06738C5.11412 7.94605 5.39319 7.94231 5.39319 7.94231L7.25985 7.93298C7.25985 7.93298 7.43532 7.96378 7.56225 8.05711C7.66585 8.13364 7.72465 8.27738 7.72465 8.27738C7.72465 8.27738 8.02612 9.04178 8.42652 9.73431C9.20678 11.0839 9.56892 11.3798 9.83398 11.2351C10.2204 11.0242 10.1047 9.32738 10.1047 9.32738C10.1047 9.32738 10.1121 8.71138 9.91052 8.43698C9.75372 8.22325 9.45878 8.15978 9.32998 8.14391C9.22452 8.12991 9.39625 7.88538 9.62025 7.77524C9.95625 7.61098 10.5498 7.60164 11.2508 7.60818C11.7968 7.61378 11.9545 7.64738 12.1673 7.69965C12.8113 7.85551 12.5929 8.45658 12.5929 9.89858C12.5929 10.3606 12.5098 11.0102 12.8421 11.2239C12.9858 11.3163 13.3358 11.2379 14.2085 9.75018C14.6238 9.04458 14.9346 8.21578 14.9346 8.21578C14.9346 8.21578 15.0028 8.06831 15.1082 8.00485C15.2165 7.93951 15.3621 7.96004 15.3621 7.96004L17.3268 7.94791C17.3268 7.94791 17.9166 7.87698 18.0128 8.14485C18.1136 8.42484 17.7925 9.07911 16.9898 10.1496C15.672 11.908 15.5254 11.7447 16.6202 12.762C17.6656 13.7336 17.8812 14.2059 17.9176 14.2656C18.3497 14.9852 17.4369 15.0422 17.4369 15.0422Z" fill="white"/>
</svg>
