<svg width="25" height="21" viewBox="0 0 25 21" fill="none" xmlns="http://www.w3.org/2000/svg">
<path d="M12.5 0.0732422C8.59304 0.0732422 3.52211 1.05215 3.52211 1.05215L3.50935 1.06674C1.72993 1.35132 0.366638 2.88036 0.366638 4.73992V10.3399V10.3417V15.9399V15.9417C0.370222 17.7763 1.70625 19.3364 3.51846 19.6222L3.52211 19.6277C3.52211 19.6277 8.59304 20.6084 12.5 20.6084C16.4069 20.6084 21.4778 19.6277 21.4778 19.6277L21.4796 19.6258C23.2939 19.3407 24.6314 17.7783 24.6333 15.9417V15.9399V10.3417V10.3399V4.73992C24.6306 2.90463 23.2944 1.34349 21.4815 1.05763L21.4778 1.05216C21.4778 1.05216 16.4069 0.0732422 12.5 0.0732422ZM9.69997 6.04512L17.1666 10.3399L9.69997 14.6347V6.04512Z" fill="white"/>
</svg>
